ISO-10303-21;
HEADER;
FILE_DESCRIPTION (( 'STEP AP214' ),
    '1' );
FILE_NAME ('model 1.STEP',
    '2026-08-09T13:11:04',
    ( '' ),
    ( '' ),
    'SwSTEP 2.0',
    'SolidWorks 2025',
    '' );
FILE_SCHEMA (( 'AUTOMOTIVE_DESIGN' ));
ENDSEC;

DATA;
#1 = LINE ( 'NONE', #623, #984 ) ;
#2 = FACE_OUTER_BOUND ( 'NONE', #974, .T. ) ;
#3 = CYLINDRICAL_SURFACE ( 'NONE', #779, 1.000000000000000000 ) ;
#4 = DIRECTION ( 'NONE',  ( 0.000000000000000000, 1.000000000000000000, -0.000000000000000000 ) ) ;
#5 = ORIENTED_EDGE ( 'NONE', *, *, #6, .T. ) ;
#6 = EDGE_CURVE ( 'NONE', #106, #288, #93, .T. ) ;
#7 = VECTOR ( 'NONE', #172, 1000.000000000000000 ) ;
#8 = AXIS2_PLACEMENT_3D ( 'NONE', #912, #261, #179 ) ;
#9 = LINE ( 'NONE', #257, #736 ) ;
#10 = CARTESIAN_POINT ( 'NONE',  ( -19.99999999999997868, 0.000000000000000000, 0.000000000000000000 ) ) ;
#11 = LINE ( 'NONE', #724, #361 ) ;
#12 = DIRECTION ( 'NONE',  ( 0.000000000000000000, 0.000000000000000000, -1.000000000000000000 ) ) ;
#13 = APPLICATION_PROTOCOL_DEFINITION ( 'draft international standard', 'automotive_design', 1998, #1018 ) ;
#14 = CARTESIAN_POINT ( 'NONE',  ( 0.01676003902541845642, 120.8176838483767597, 14.97769652263337115 ) ) ;
#15 = CARTESIAN_POINT ( 'NONE',  ( 0.000000000000000000, 127.5000000000000000, -4.000000000000001776 ) ) ;
#16 = VERTEX_POINT ( 'NONE', #657 ) ;
#17 = ORIENTED_EDGE ( 'NONE', *, *, #988, .F. ) ;
#18 = ADVANCED_FACE ( 'NONE', ( #102 ), #747, .F. ) ;
#19 = DIRECTION ( 'NONE',  ( -0.000000000000000000, 0.000000000000000000, 1.000000000000000000 ) ) ;
#20 = ORIENTED_EDGE ( 'NONE', *, *, #6, .F. ) ;
#21 = EDGE_LOOP ( 'NONE', ( #653, #308, #265, #242 ) ) ;
#22 = ORIENTED_EDGE ( 'NONE', *, *, #666, .T. ) ;
#23 = B_SPLINE_CURVE_WITH_KNOTS ( 'NONE', 3,
 ( #79, #722, #859, #643 ),
 .UNSPECIFIED., .F., .F.,
 ( 4, 4 ),
 ( 0.000000000000000000, 0.0001834190720682835648 ),
 .UNSPECIFIED. ) ;
#24 = VECTOR ( 'NONE', #785, 1000.000000000000000 ) ;
#25 = CARTESIAN_POINT ( 'NONE',  ( 28.00000000000000000, 52.31847857099724308, -15.00000000000000178 ) ) ;
#26 = CIRCLE ( 'NONE', #251, 8.000000000000003553 ) ;
#27 = ORIENTED_EDGE ( 'NONE', *, *, #630, .F. ) ;
#28 = ORIENTED_EDGE ( 'NONE', *, *, #726, .T. ) ;
#29 = ADVANCED_FACE ( 'NONE', ( #158 ), #58, .T. ) ;
#30 = CARTESIAN_POINT ( 'NONE',  ( 11.99999999999999822, 120.0000000000000000, 24.00000000000000000 ) ) ;
#31 = ORIENTED_EDGE ( 'NONE', *, *, #707, .T. ) ;
#32 = ORIENTED_EDGE ( 'NONE', *, *, #86, .T. ) ;
#33 = DIRECTION ( 'NONE',  ( -0.000000000000000000, -0.000000000000000000, 1.000000000000000000 ) ) ;
#34 = DIRECTION ( 'NONE',  ( -0.000000000000000000, 0.000000000000000000, 1.000000000000000000 ) ) ;
#35 = ORIENTED_EDGE ( 'NONE', *, *, #775, .F. ) ;
#36 = EDGE_LOOP ( 'NONE', ( #124, #298, #706, #287 ) ) ;
#37 = EDGE_CURVE ( 'NONE', #496, #870, #431, .T. ) ;
#38 = AXIS2_PLACEMENT_3D ( 'NONE', #346, #668, #561 ) ;
#39 = DIRECTION ( 'NONE',  ( 0.000000000000000000, 0.000000000000000000, 1.000000000000000000 ) ) ;
#40 = CIRCLE ( 'NONE', #599, 15.00000000000000000 ) ;
#41 = CARTESIAN_POINT ( 'NONE',  ( 0.000000000000000000, 120.0000000000000000, -15.00000000000000000 ) ) ;
#42 = VECTOR ( 'NONE', #136, 1000.000000000000000 ) ;
#43 = ORIENTED_EDGE ( 'NONE', *, *, #185, .F. ) ;
#44 = ORIENTED_EDGE ( 'NONE', *, *, #560, .T. ) ;
#45 = VERTEX_POINT ( 'NONE', #866 ) ;
#46 = VERTEX_POINT ( 'NONE', #146 ) ;
#47 = CARTESIAN_POINT ( 'NONE',  ( -1.893475508494340657E-16, 120.2728785790236827, 15.00000000000000000 ) ) ;
#48 = CARTESIAN_POINT ( 'NONE',  ( 0.4452998037747669113, 0.2968665358498460694, 14.43501681259435188 ) ) ;
#49 = CARTESIAN_POINT ( 'NONE',  ( 0.000000000000000000, 135.0000000000000000, 0.000000000000000000 ) ) ;
#50 = ORIENTED_EDGE ( 'NONE', *, *, #848, .T. ) ;
#51 = ADVANCED_FACE ( 'NONE', ( #787 ), #702, .F. ) ;
#52 = AXIS2_PLACEMENT_3D ( 'NONE', #1029, #303, #548 ) ;
#53 = CARTESIAN_POINT ( 'NONE',  ( 0.000000000000000000, 121.0000000000000000, 15.00000000000000000 ) ) ;
#54 = CARTESIAN_POINT ( 'NONE',  ( 0.001595036090846518222, -0.2917042390284703690, 14.99787210735079412 ) ) ;
#55 = LINE ( 'NONE', #49, #434 ) ;
#56 = AXIS2_PLACEMENT_3D ( 'NONE', #327, #655, #650 ) ;
#57 = VECTOR ( 'NONE', #537, 1000.000000000000000 ) ;
#58 = CYLINDRICAL_SURFACE ( 'NONE', #628, 15.00000000000000000 ) ;
#59 = DIRECTION ( 'NONE',  ( -1.000000000000000000, 0.000000000000000000, 0.000000000000000000 ) ) ;
#60 = PLANE ( 'NONE',  #951 ) ;
#61 = CARTESIAN_POINT ( 'NONE',  ( 11.99999999999999822, 0.000000000000000000, 9.000000000000000000 ) ) ;
#62 = ORIENTED_EDGE ( 'NONE', *, *, #168, .T. ) ;
#63 = FACE_OUTER_BOUND ( 'NONE', #826, .T. ) ;
#64 = DIRECTION ( 'NONE',  ( -0.000000000000000000, 0.000000000000000000, 1.000000000000000000 ) ) ;
#65 = DIRECTION ( 'NONE',  ( -0.8320502943378437211, -0.5547001962252291474, 0.000000000000000000 ) ) ;
#66 = CARTESIAN_POINT ( 'NONE',  ( 0.000000000000000000, 120.0000000000000142, 0.000000000000000000 ) ) ;
#67 = EDGE_CURVE ( 'NONE', #288, #720, #130, .T. ) ;
#68 = ORIENTED_EDGE ( 'NONE', *, *, #697, .T. ) ;
#69 = CARTESIAN_POINT ( 'NONE',  ( 0.000000000000000000, 99.99999999999998579, 9.000000000000000000 ) ) ;
#70 = CARTESIAN_POINT ( 'NONE',  ( 0.000000000000000000, -0.5351837584879963750, 15.00000000000000000 ) ) ;
#71 = PLANE ( 'NONE',  #750 ) ;
#72 = ADVANCED_FACE ( 'NONE', ( #383, #153, #63 ), #721, .F. ) ;
#73 = DIRECTION ( 'NONE',  ( 0.000000000000000000, -0.000000000000000000, 1.000000000000000000 ) ) ;
#74 = VECTOR ( 'NONE', #795, 1000.000000000000000 ) ;
#75 = EDGE_CURVE ( 'NONE', #665, #804, #1, .T. ) ;
#76 = VERTEX_POINT ( 'NONE', #958 ) ;
#77 = VECTOR ( 'NONE', #878, 1000.000000000000000 ) ;
#78 = CARTESIAN_POINT ( 'NONE',  ( 28.00000000000000000, 52.31847857099724308, -9.000000000000000000 ) ) ;
#79 = CARTESIAN_POINT ( 'NONE',  ( 0.000000000000000000, 121.0000000000000000, -14.96662954709576709 ) ) ;
#80 = CARTESIAN_POINT ( 'NONE',  ( -20.00000000000000000, 127.5000000000000000, 4.000000000000001776 ) ) ;
#81 =( NAMED_UNIT ( * ) PLANE_ANGLE_UNIT ( ) SI_UNIT ( $, .RADIAN. ) );
#82 = EDGE_LOOP ( 'NONE', ( #151, #200 ) ) ;
#83 = LINE ( 'NONE', #637, #881 ) ;
#84 = LINE ( 'NONE', #412, #918 ) ;
#85 = FACE_OUTER_BOUND ( 'NONE', #588, .T. ) ;
#86 = EDGE_CURVE ( 'NONE', #446, #524, #164, .T. ) ;
#87 = EDGE_CURVE ( 'NONE', #76, #191, #792, .T. ) ;
#88 = EDGE_LOOP ( 'NONE', ( #796, #914 ) ) ;
#89 = CYLINDRICAL_SURFACE ( 'NONE', #516, 1.000000000000000000 ) ;
#90 = FACE_OUTER_BOUND ( 'NONE', #672, .T. ) ;
#91 = PLANE ( 'NONE',  #448 ) ;
#92 =( GEOMETRIC_REPRESENTATION_CONTEXT ( 3 ) GLOBAL_UNCERTAINTY_ASSIGNED_CONTEXT ( ( #547 ) ) GLOBAL_UNIT_ASSIGNED_CONTEXT ( ( #333, #81, #249 ) ) REPRESENTATION_CONTEXT ( 'NONE', 'WORKASPACE' ) );
#93 = LINE ( 'NONE', #584, #161 ) ;
#94 = AXIS2_PLACEMENT_3D ( 'NONE', #976, #972, #254 ) ;
#95 = DIRECTION ( 'NONE',  ( -1.000000000000000000, 0.000000000000000000, 0.000000000000000000 ) ) ;
#96 = CARTESIAN_POINT ( 'NONE',  ( 28.00000000000000000, 52.31847857099724308, 9.000000000000000000 ) ) ;
#97 = CARTESIAN_POINT ( 'NONE',  ( 0.000000000000000000, -7.500000000000000000, 0.000000000000000000 ) ) ;
#98 = ORIENTED_EDGE ( 'NONE', *, *, #1038, .T. ) ;
#99 = CARTESIAN_POINT ( 'NONE',  ( -20.00000000000000000, 127.5000000000000000, 0.000000000000000000 ) ) ;
#100 = ORIENTED_EDGE ( 'NONE', *, *, #853, .T. ) ;
#101 = ADVANCED_BREP_SHAPE_REPRESENTATION ( 'model 1', ( #280, #782 ), #281 ) ;
#102 = FACE_OUTER_BOUND ( 'NONE', #673, .T. ) ;
#103 = DIRECTION ( 'NONE',  ( 0.000000000000000000, 0.000000000000000000, -1.000000000000000000 ) ) ;
#104 = EDGE_CURVE ( 'NONE', #1028, #256, #664, .T. ) ;
#105 = EDGE_LOOP ( 'NONE', ( #35, #1006, #22, #611 ) ) ;
#106 = VERTEX_POINT ( 'NONE', #781 ) ;
#107 = EDGE_CURVE ( 'NONE', #713, #524, #83, .T. ) ;
#108 = CIRCLE ( 'NONE', #400, 4.000000000000000888 ) ;
#109 = CIRCLE ( 'NONE', #885, 15.00000000000000000 ) ;
#110 = CARTESIAN_POINT ( 'NONE',  ( 0.000000000000000000, 0.000000000000000000, 0.000000000000000000 ) ) ;
#111 = CARTESIAN_POINT ( 'NONE',  ( 0.000000000000000000, 127.5000000000000000, 4.000000000000001776 ) ) ;
#112 = CIRCLE ( 'NONE', #376, 15.00000000000000000 ) ;
#113 = VECTOR ( 'NONE', #33, 1000.000000000000000 ) ;
#114 = EDGE_LOOP ( 'NONE', ( #594, #5, #173, #982, #957, #366 ) ) ;
#115 = ORIENTED_EDGE ( 'NONE', *, *, #384, .T. ) ;
#116 = FACE_OUTER_BOUND ( 'NONE', #135, .T. ) ;
#117 = CARTESIAN_POINT ( 'NONE',  ( 0.004787671560018823269, -0.4374472692883567548, -14.99361997272813696 ) ) ;
#118 = ORIENTED_EDGE ( 'NONE', *, *, #291, .F. ) ;
#119 = EDGE_CURVE ( 'NONE', #935, #876, #121, .T. ) ;
#120 = ORIENTED_EDGE ( 'NONE', *, *, #818, .T. ) ;
#121 = B_SPLINE_CURVE_WITH_KNOTS ( 'NONE', 3,
 ( #714, #642, #953, #963, #480, #389, #797, #708, #410, #968 ),
 .UNSPECIFIED., .F., .F.,
 ( 4, 2, 2, 2, 4 ),
 ( 4.336808689942017736E-19, 0.0004567561658246416722, 0.0009135123316492829108, 0.001370268497473924041, 0.001827024663298565388 ),
 .UNSPECIFIED. ) ;
#122 = DIRECTION ( 'NONE',  ( -0.000000000000000000, 0.000000000000000000, 1.000000000000000000 ) ) ;
#123 = ORIENTED_EDGE ( 'NONE', *, *, #194, .F. ) ;
#124 = ORIENTED_EDGE ( 'NONE', *, *, #697, .F. ) ;
#125 = LINE ( 'NONE', #855, #42 ) ;
#126 = AXIS2_PLACEMENT_3D ( 'NONE', #166, #729, #175 ) ;
#127 = VECTOR ( 'NONE', #562, 1000.000000000000000 ) ;
#128 = ORIENTED_EDGE ( 'NONE', *, *, #601, .F. ) ;
#129 = ORIENTED_EDGE ( 'NONE', *, *, #396, .F. ) ;
#130 =( BOUNDED_CURVE ( )  B_SPLINE_CURVE ( 3, ( #395, #321, #252, #646 ),
 .UNSPECIFIED., .F., .F. ) 
 B_SPLINE_CURVE_WITH_KNOTS ( ( 4, 4 ),
 ( 3.833056578277750148, 4.712388980384689674 ),
 .UNSPECIFIED. ) 
 CURVE ( )  GEOMETRIC_REPRESENTATION_ITEM ( )  RATIONAL_B_SPLINE_CURVE ( ( 1.000000000000000000, 0.9365958606383648632, 0.9365958606383648632, 1.000000000000000000 ) ) 
 REPRESENTATION_ITEM ( '' )  );
#131 = PRODUCT_DEFINITION ( 'UNKNOWN', '', #905, #231 ) ;
#132 = CARTESIAN_POINT ( 'NONE',  ( 0.08472032137190155243, -0.1067421040903718671, -14.88719598326498073 ) ) ;
#133 = LINE ( 'NONE', #61, #694 ) ;
#134 = B_SPLINE_CURVE_WITH_KNOTS ( 'NONE', 3,
 ( #645, #573, #408, #808, #813, #373, #794, #717, #960, #300 ),
 .UNSPECIFIED., .F., .F.,
 ( 4, 2, 2, 2, 4 ),
 ( 0.000000000000000000, 0.0004585801916760813557, 0.0009171603833521627114, 0.001375740575028244067, 0.001834320766704325423 ),
 .UNSPECIFIED. ) ;
#135 = EDGE_LOOP ( 'NONE', ( #32, #344, #123, #590 ) ) ;
#136 = DIRECTION ( 'NONE',  ( -1.000000000000000000, 0.000000000000000000, -0.000000000000000000 ) ) ;
#137 = LINE ( 'NONE', #868, #986 ) ;
#138 = PLANE ( 'NONE',  #1013 ) ;
#139 = ORIENTED_EDGE ( 'NONE', *, *, #180, .T. ) ;
#140 = DIRECTION ( 'NONE',  ( -1.000000000000000000, 0.000000000000000000, 0.000000000000000000 ) ) ;
#141 = CARTESIAN_POINT ( 'NONE',  ( 0.001599384024093102865, -0.4699123505323088423, 14.99267278578040852 ) ) ;
#142 = CARTESIAN_POINT ( 'NONE',  ( -20.00000000000000000, -7.499999999999999112, 4.000000000000000888 ) ) ;
#143 = CARTESIAN_POINT ( 'NONE',  ( 0.000000000000000000, 120.0000000000000000, 15.00000000000000000 ) ) ;
#144 = ORIENTED_EDGE ( 'NONE', *, *, #535, .T. ) ;
#145 = CIRCLE ( 'NONE', #952, 7.999999999999992895 ) ;
#146 = CARTESIAN_POINT ( 'NONE',  ( 91.95988371330597033, 85.34359764529726533, 9.000000000000000000 ) ) ;
#147 = CARTESIAN_POINT ( 'NONE',  ( 28.00000000000000000, 92.00000000000000000, 9.000000000000000000 ) ) ;
#148 = DIRECTION ( 'NONE',  ( 1.000000000000000000, 0.000000000000000000, 0.000000000000000000 ) ) ;
#149 = DIRECTION ( 'NONE',  ( 0.000000000000000000, 1.000000000000000000, 0.000000000000000000 ) ) ;
#150 = ADVANCED_FACE ( 'NONE', ( #232, #325 ), #575, .F. ) ;
#151 = ORIENTED_EDGE ( 'NONE', *, *, #293, .T. ) ;
#152 = EDGE_CURVE ( 'NONE', #720, #424, #469, .T. ) ;
#153 = FACE_BOUND ( 'NONE', #356, .T. ) ;
#154 = LINE ( 'NONE', #638, #633 ) ;
#155 = CARTESIAN_POINT ( 'NONE',  ( 0.000000000000000000, 135.0000000000000000, 0.000000000000000000 ) ) ;
#156 = DIRECTION ( 'NONE',  ( 0.000000000000000000, 1.000000000000000000, 0.000000000000000000 ) ) ;
#157 = VERTEX_POINT ( 'NONE', #209 ) ;
#158 = FACE_OUTER_BOUND ( 'NONE', #595, .T. ) ;
#159 = DIRECTION ( 'NONE',  ( 0.000000000000000000, 0.000000000000000000, -1.000000000000000000 ) ) ;
#160 = DIRECTION ( 'NONE',  ( -2.312964634635742957E-16, 1.000000000000000000, 0.000000000000000000 ) ) ;
#161 = VECTOR ( 'NONE', #12, 1000.000000000000000 ) ;
#162 = ORIENTED_EDGE ( 'NONE', *, *, #756, .F. ) ;
#163 = CIRCLE ( 'NONE', #832, 4.000000000000000888 ) ;
#164 = LINE ( 'NONE', #877, #1033 ) ;
#165 = CARTESIAN_POINT ( 'NONE',  ( 0.000000000000000000, -15.00000000000000000, 0.000000000000000000 ) ) ;
#166 = CARTESIAN_POINT ( 'NONE',  ( 0.000000000000000000, 0.000000000000000000, 0.000000000000000000 ) ) ;
#167 = DIRECTION ( 'NONE',  ( 0.8320502943378436100, 0.5547001962252291474, 0.000000000000000000 ) ) ;
#168 = EDGE_CURVE ( 'NONE', #600, #437, #55, .T. ) ;
#169 = EDGE_LOOP ( 'NONE', ( #819, #546, #907, #320 ) ) ;
#170 = FACE_OUTER_BOUND ( 'NONE', #858, .T. ) ;
#171 = CARTESIAN_POINT ( 'NONE',  ( 0.000000000000000000, 0.000000000000000000, 0.000000000000000000 ) ) ;
#172 = DIRECTION ( 'NONE',  ( 0.000000000000000000, -0.000000000000000000, -1.000000000000000000 ) ) ;
#173 = ORIENTED_EDGE ( 'NONE', *, *, #67, .T. ) ;
#174 = CARTESIAN_POINT ( 'NONE',  ( 0.000000000000000000, 0.000000000000000000, -15.00000000000000000 ) ) ;
#175 = DIRECTION ( 'NONE',  ( 0.000000000000000000, 0.000000000000000000, 1.000000000000000000 ) ) ;
#176 = LINE ( 'NONE', #977, #679 ) ;
#177 = ORIENTED_EDGE ( 'NONE', *, *, #707, .F. ) ;
#178 = VECTOR ( 'NONE', #896, 1000.000000000000000 ) ;
#179 = DIRECTION ( 'NONE',  ( -2.312964634635742957E-16, 1.000000000000000000, 0.000000000000000000 ) ) ;
#180 = EDGE_CURVE ( 'NONE', #419, #462, #944, .T. ) ;
#181 = ORIENTED_EDGE ( 'NONE', *, *, #1045, .F. ) ;
#182 = ORIENTED_EDGE ( 'NONE', *, *, #75, .F. ) ;
#183 = EDGE_CURVE ( 'NONE', #350, #284, #220, .T. ) ;
#184 = DIRECTION ( 'NONE',  ( -1.000000000000000000, 0.000000000000000000, 0.000000000000000000 ) ) ;
#185 = EDGE_CURVE ( 'NONE', #437, #157, #950, .T. ) ;
#186 = ORIENTED_EDGE ( 'NONE', *, *, #818, .F. ) ;
#187 = VERTEX_POINT ( 'NONE', #143 ) ;
#188 = DIRECTION ( 'NONE',  ( 0.000000000000000000, 0.000000000000000000, 1.000000000000000000 ) ) ;
#189 = LINE ( 'NONE', #174, #178 ) ;
#190 = ORIENTED_EDGE ( 'NONE', *, *, #687, .F. ) ;
#191 = VERTEX_POINT ( 'NONE', #214 ) ;
#192 = AXIS2_PLACEMENT_3D ( 'NONE', #948, #149, #1021 ) ;
#193 = DIRECTION ( 'NONE',  ( 0.000000000000000000, 0.000000000000000000, 1.000000000000000000 ) ) ;
#194 = EDGE_CURVE ( 'NONE', #791, #713, #374, .T. ) ;
#195 = DIRECTION ( 'NONE',  ( 1.000000000000000000, -0.000000000000000000, -0.000000000000000000 ) ) ;
#196 = ORIENTED_EDGE ( 'NONE', *, *, #526, .T. ) ;
#197 = EDGE_CURVE ( 'NONE', #508, #923, #846, .T. ) ;
#198 = VERTEX_POINT ( 'NONE', #626 ) ;
#199 = LINE ( 'NONE', #532, #485 ) ;
#200 = ORIENTED_EDGE ( 'NONE', *, *, #558, .T. ) ;
#201 = ORIENTED_EDGE ( 'NONE', *, *, #197, .T. ) ;
#202 = DIRECTION ( 'NONE',  ( 0.000000000000000000, 0.000000000000000000, -1.000000000000000000 ) ) ;
#203 = VERTEX_POINT ( 'NONE', #778 ) ;
#204 = EDGE_CURVE ( 'NONE', #198, #419, #108, .T. ) ;
#205 = ORIENTED_EDGE ( 'NONE', *, *, #351, .F. ) ;
#206 = CARTESIAN_POINT ( 'NONE',  ( 28.00000000000000000, 99.99999999999998579, -9.000000000000000000 ) ) ;
#207 = AXIS2_PLACEMENT_3D ( 'NONE', #777, #691, #639 ) ;
#208 = CIRCLE ( 'NONE', #230, 100.0000000000000000 ) ;
#209 = CARTESIAN_POINT ( 'NONE',  ( 0.000000000000000000, 121.0000000000000000, 14.96662954709576709 ) ) ;
#210 = ORIENTED_EDGE ( 'NONE', *, *, #215, .F. ) ;
#211 = B_SPLINE_CURVE_WITH_KNOTS ( 'NONE', 3,
 ( #238, #788, #1046, #322 ),
 .UNSPECIFIED., .F., .F.,
 ( 4, 4 ),
 ( 0.000000000000000000, 0.0001834190720682764633 ),
 .UNSPECIFIED. ) ;
#212 = LINE ( 'NONE', #440, #57 ) ;
#213 = CARTESIAN_POINT ( 'NONE',  ( 0.004787671560018823269, -0.4374472692883567548, -14.99361997272813696 ) ) ;
#214 = CARTESIAN_POINT ( 'NONE',  ( 28.00000000000000000, 99.99999999999998579, 9.000000000000000000 ) ) ;
#215 = EDGE_CURVE ( 'NONE', #600, #627, #40, .T. ) ;
#216 = VERTEX_POINT ( 'NONE', #545 ) ;
#217 = B_SPLINE_CURVE_WITH_KNOTS ( 'NONE', 3,
 ( #295, #459, #234, #213 ),
 .UNSPECIFIED., .F., .F.,
 ( 4, 4 ),
 ( 0.000000000000000000, 0.0004375199880631700563 ),
 .UNSPECIFIED. ) ;
#218 = CARTESIAN_POINT ( 'NONE',  ( 180.0000000000000000, 79.99999999999998579, 9.000000000000000000 ) ) ;
#219 = CARTESIAN_POINT ( 'NONE',  ( 28.00000000000000000, 92.00000000000000000, -9.000000000000000000 ) ) ;
#220 = LINE ( 'NONE', #1012, #313 ) ;
#221 = ADVANCED_FACE ( 'NONE', ( #934 ), #235, .T. ) ;
#222 = DIRECTION ( 'NONE',  ( -0.000000000000000000, -0.000000000000000000, -1.000000000000000000 ) ) ;
#223 = EDGE_CURVE ( 'NONE', #870, #823, #533, .T. ) ;
#224 = DIRECTION ( 'NONE',  ( 0.000000000000000000, 1.000000000000000000, -0.000000000000000000 ) ) ;
#225 = CARTESIAN_POINT ( 'NONE',  ( -20.00000000000000000, 120.0000000000000142, 0.000000000000000000 ) ) ;
#226 = CIRCLE ( 'NONE', #814, 4.000000000000000888 ) ;
#227 = LINE ( 'NONE', #869, #572 ) ;
#228 = AXIS2_PLACEMENT_3D ( 'NONE', #96, #413, #807 ) ;
#229 = ORIENTED_EDGE ( 'NONE', *, *, #560, .F. ) ;
#230 = AXIS2_PLACEMENT_3D ( 'NONE', #821, #815, #662 ) ;
#231 = PRODUCT_DEFINITION_CONTEXT ( 'detailed design', #244, 'design' ) ;
#232 = FACE_BOUND ( 'NONE', #433, .T. ) ;
#233 = DIRECTION ( 'NONE',  ( 0.000000000000000000, -0.000000000000000000, -1.000000000000000000 ) ) ;
#234 = CARTESIAN_POINT ( 'NONE',  ( 0.001595036090846520390, -0.2917042390284703135, -14.99787210735079412 ) ) ;
#235 = PLANE ( 'NONE',  #192 ) ;
#236 = EDGE_LOOP ( 'NONE', ( #473, #978, #44 ) ) ;
#237 = DIRECTION ( 'NONE',  ( 1.000000000000000000, 1.619075244245020119E-16, -0.000000000000000000 ) ) ;
#238 = CARTESIAN_POINT ( 'NONE',  ( 0.01676003902541845642, 120.8176838483767597, 14.97769652263337115 ) ) ;
#239 = DIRECTION ( 'NONE',  ( -2.312964634635742957E-16, 1.000000000000000000, 0.000000000000000000 ) ) ;
#240 = CARTESIAN_POINT ( 'NONE',  ( 0.000000000000000000, 0.000000000000000000, -15.00000000000000000 ) ) ;
#241 = EDGE_CURVE ( 'NONE', #16, #769, #133, .T. ) ;
#242 = ORIENTED_EDGE ( 'NONE', *, *, #223, .F. ) ;
#243 = DIRECTION ( 'NONE',  ( 0.000000000000000000, 0.000000000000000000, -1.000000000000000000 ) ) ;
#244 = APPLICATION_CONTEXT ( 'automotive_design' ) ;
#245 = CARTESIAN_POINT ( 'NONE',  ( 0.000000000000000000, 127.5000000000000000, 0.000000000000000000 ) ) ;
#246 = DIRECTION ( 'NONE',  ( 1.000000000000000000, -0.000000000000000000, 0.000000000000000000 ) ) ;
#247 = EDGE_CURVE ( 'NONE', #804, #990, #456, .T. ) ;
#248 = VECTOR ( 'NONE', #629, 1000.000000000000000 ) ;
#249 =( NAMED_UNIT ( * ) SI_UNIT ( $, .STERADIAN. ) SOLID_ANGLE_UNIT ( ) );
#250 = CIRCLE ( 'NONE', #888, 15.00000000000000000 ) ;
#251 = AXIS2_PLACEMENT_3D ( 'NONE', #147, #233, #425 ) ;
#252 = CARTESIAN_POINT ( 'NONE',  ( 7.455484546984960659, 4.970323031323307994, -8.999999999999994671 ) ) ;
#253 = DIRECTION ( 'NONE',  ( 0.000000000000000000, 0.000000000000000000, -1.000000000000000000 ) ) ;
#254 = DIRECTION ( 'NONE',  ( 0.000000000000000000, 0.000000000000000000, 1.000000000000000000 ) ) ;
#255 = LINE ( 'NONE', #259, #7 ) ;
#256 = VERTEX_POINT ( 'NONE', #380 ) ;
#257 = CARTESIAN_POINT ( 'NONE',  ( 94.80754415067649177, 63.20502943378433969, 9.000000000000000000 ) ) ;
#258 = DIRECTION ( 'NONE',  ( -1.000000000000000000, 0.000000000000000000, 0.000000000000000000 ) ) ;
#259 = CARTESIAN_POINT ( 'NONE',  ( 150.2775637731994323, 79.99999999999998579, 9.000000000000000000 ) ) ;
#260 = ORIENTED_EDGE ( 'NONE', *, *, #432, .F. ) ;
#261 = DIRECTION ( 'NONE',  ( -1.000000000000000000, -1.619075244245020119E-16, 0.000000000000000000 ) ) ;
#262 = EDGE_CURVE ( 'NONE', #990, #496, #387, .T. ) ;
#263 = ORIENTED_EDGE ( 'NONE', *, *, #185, .T. ) ;
#264 = ADVANCED_FACE ( 'NONE', ( #773 ), #862, .F. ) ;
#265 = ORIENTED_EDGE ( 'NONE', *, *, #535, .F. ) ;
#266 = VECTOR ( 'NONE', #981, 1000.000000000000000 ) ;
#267 = ADVANCED_FACE ( 'NONE', ( #540, #857 ), #138, .F. ) ;
#268 = CYLINDRICAL_SURFACE ( 'NONE', #329, 4.000000000000000888 ) ;
#269 = ORIENTED_EDGE ( 'NONE', *, *, #601, .T. ) ;
#270 = VERTEX_POINT ( 'NONE', #301 ) ;
#271 = CARTESIAN_POINT ( 'NONE',  ( 0.000000000000000000, 0.000000000000000000, 15.00000000000000000 ) ) ;
#272 = VERTEX_POINT ( 'NONE', #621 ) ;
#273 = VERTEX_POINT ( 'NONE', #705 ) ;
#274 = EDGE_CURVE ( 'NONE', #191, #641, #227, .T. ) ;
#275 = B_SPLINE_CURVE_WITH_KNOTS ( 'NONE', 3,
 ( #776, #1019, #933, #132, #688, #677 ),
 .UNSPECIFIED., .F., .F.,
 ( 4, 2, 4 ),
 ( 9.966407208441931127E-19, 0.0005289815116595202905, 0.001057963023319039714 ),
 .UNSPECIFIED. ) ;
#276 = ORIENTED_EDGE ( 'NONE', *, *, #526, .F. ) ;
#277 = ORIENTED_EDGE ( 'NONE', *, *, #647, .T. ) ;
#278 = AXIS2_PLACEMENT_3D ( 'NONE', #451, #358, #368 ) ;
#279 = FACE_OUTER_BOUND ( 'NONE', #519, .T. ) ;
#280 = MANIFOLD_SOLID_BREP ( 'Fillet7', #569 ) ;
#281 =( GEOMETRIC_REPRESENTATION_CONTEXT ( 3 ) GLOBAL_UNCERTAINTY_ASSIGNED_CONTEXT ( ( #652 ) ) GLOBAL_UNIT_ASSIGNED_CONTEXT ( ( #439, #527, #840 ) ) REPRESENTATION_CONTEXT ( 'NONE', 'WORKASPACE' ) );
#282 = LINE ( 'NONE', #841, #696 ) ;
#283 = VERTEX_POINT ( 'NONE', #579 ) ;
#284 = VERTEX_POINT ( 'NONE', #494 ) ;
#285 = DIRECTION ( 'NONE',  ( -1.000000000000000000, 0.000000000000000000, 0.000000000000000000 ) ) ;
#286 = CARTESIAN_POINT ( 'NONE',  ( 0.000000000000000000, 120.0000000000000000, 15.00000000000000000 ) ) ;
#287 = ORIENTED_EDGE ( 'NONE', *, *, #274, .T. ) ;
#288 = VERTEX_POINT ( 'NONE', #812 ) ;
#289 = CARTESIAN_POINT ( 'NONE',  ( 0.4452998037747669113, 0.2968665358498460694, 14.43501681259435188 ) ) ;
#290 = ORIENTED_EDGE ( 'NONE', *, *, #460, .T. ) ;
#291 = EDGE_CURVE ( 'NONE', #534, #661, #176, .T. ) ;
#292 = AXIS2_PLACEMENT_3D ( 'NONE', #307, #314, #852 ) ;
#293 = EDGE_CURVE ( 'NONE', #504, #462, #226, .T. ) ;
#294 = FACE_OUTER_BOUND ( 'NONE', #843, .T. ) ;
#295 = CARTESIAN_POINT ( 'NONE',  ( 0.000000000000000000, 0.000000000000000000, -15.00000000000000000 ) ) ;
#296 = AXIS2_PLACEMENT_3D ( 'NONE', #219, #955, #148 ) ;
#297 = DIRECTION ( 'NONE',  ( -2.312964634635742957E-16, 1.000000000000000000, 0.000000000000000000 ) ) ;
#298 = ORIENTED_EDGE ( 'NONE', *, *, #613, .T. ) ;
#299 = LINE ( 'NONE', #684, #363 ) ;
#300 = CARTESIAN_POINT ( 'NONE',  ( 0.9999999999999991118, 120.0000000000000000, -13.80196097281442924 ) ) ;
#301 = CARTESIAN_POINT ( 'NONE',  ( 94.80754415067650598, 63.20502943378433969, -9.000000000000000000 ) ) ;
#302 = EDGE_LOOP ( 'NONE', ( #586, #139, #365, #27 ) ) ;
#303 = DIRECTION ( 'NONE',  ( -0.000000000000000000, 0.000000000000000000, 1.000000000000000000 ) ) ;
#304 = EDGE_CURVE ( 'NONE', #270, #720, #11, .T. ) ;
#305 = DIRECTION ( 'NONE',  ( 0.000000000000000000, 0.000000000000000000, 1.000000000000000000 ) ) ;
#306 = LINE ( 'NONE', #1020, #831 ) ;
#307 = CARTESIAN_POINT ( 'NONE',  ( 0.000000000000000000, 127.5000000000000000, 0.000000000000000000 ) ) ;
#308 = ORIENTED_EDGE ( 'NONE', *, *, #262, .F. ) ;
#309 = CARTESIAN_POINT ( 'NONE',  ( 11.99999999999999822, 0.000000000000000000, -9.000000000000000000 ) ) ;
#310 = AXIS2_PLACEMENT_3D ( 'NONE', #727, #237, #474 ) ;
#311 = CARTESIAN_POINT ( 'NONE',  ( 0.000000000000000000, 120.0000000000000142, 0.000000000000000000 ) ) ;
#312 = DIRECTION ( 'NONE',  ( 0.5547001962252290364, -0.8320502943378437211, 0.000000000000000000 ) ) ;
#313 = VECTOR ( 'NONE', #719, 1000.000000000000000 ) ;
#314 = DIRECTION ( 'NONE',  ( -1.000000000000000000, 0.000000000000000000, 0.000000000000000000 ) ) ;
#315 = CIRCLE ( 'NONE', #228, 8.000000000000003553 ) ;
#316 = ORIENTED_EDGE ( 'NONE', *, *, #75, .T. ) ;
#317 = CARTESIAN_POINT ( 'NONE',  ( 0.000000000000000000, -0.5351837584879963750, 14.99044957113197007 ) ) ;
#318 = CARTESIAN_POINT ( 'NONE',  ( 0.3406221462449484649, 0.2270814308299658468, 14.56146961719445798 ) ) ;
#319 = DIRECTION ( 'NONE',  ( 0.000000000000000000, 0.000000000000000000, -1.000000000000000000 ) ) ;
#320 = ORIENTED_EDGE ( 'NONE', *, *, #450, .F. ) ;
#321 = CARTESIAN_POINT ( 'NONE',  ( 3.343180730641030607, 2.228787153760688700, -10.93431590614759052 ) ) ;
#322 = CARTESIAN_POINT ( 'NONE',  ( 0.000000000000000000, 121.0000000000000000, 14.96662954709576709 ) ) ;
#323 = CARTESIAN_POINT ( 'NONE',  ( 20.00000000000000000, 52.31847857099724308, -9.000000000000000000 ) ) ;
#324 = FACE_OUTER_BOUND ( 'NONE', #414, .T. ) ;
#325 = FACE_OUTER_BOUND ( 'NONE', #342, .T. ) ;
#326 = DIRECTION ( 'NONE',  ( 1.000000000000000000, 0.000000000000000000, 0.000000000000000000 ) ) ;
#327 = CARTESIAN_POINT ( 'NONE',  ( -20.00000000000000000, -7.500000000000000000, 0.000000000000000000 ) ) ;
#328 = AXIS2_PLACEMENT_3D ( 'NONE', #171, #493, #811 ) ;
#329 = AXIS2_PLACEMENT_3D ( 'NONE', #828, #420, #658 ) ;
#330 = VERTEX_POINT ( 'NONE', #961 ) ;
#331 = CARTESIAN_POINT ( 'NONE',  ( 0.000000000000000000, 120.0000000000000000, -15.00000000000000000 ) ) ;
#332 = FACE_OUTER_BOUND ( 'NONE', #302, .T. ) ;
#333 =( LENGTH_UNIT ( ) NAMED_UNIT ( * ) SI_UNIT ( .MILLI., .METRE. ) );
#334 = ORIENTED_EDGE ( 'NONE', *, *, #911, .T. ) ;
#335 = ADVANCED_FACE ( 'NONE', ( #324 ), #91, .F. ) ;
#336 = FACE_OUTER_BOUND ( 'NONE', #610, .T. ) ;
#337 = FACE_OUTER_BOUND ( 'NONE', #375, .T. ) ;
#338 = EDGE_CURVE ( 'NONE', #283, #506, #255, .T. ) ;
#339 = ORIENTED_EDGE ( 'NONE', *, *, #87, .F. ) ;
#340 = VERTEX_POINT ( 'NONE', #640 ) ;
#341 = DIRECTION ( 'NONE',  ( 1.000000000000000000, 0.000000000000000000, 0.000000000000000000 ) ) ;
#342 = EDGE_LOOP ( 'NONE', ( #863, #1007, #509, #760, #598, #809 ) ) ;
#343 = AXIS2_PLACEMENT_3D ( 'NONE', #463, #488, #243 ) ;
#344 = ORIENTED_EDGE ( 'NONE', *, *, #107, .F. ) ;
#345 = VECTOR ( 'NONE', #874, 1000.000000000000000 ) ;
#346 = CARTESIAN_POINT ( 'NONE',  ( 11.99999999999999822, 0.000000000000000000, 24.00000000000000000 ) ) ;
#347 = AXIS2_PLACEMENT_3D ( 'NONE', #489, #886, #946 ) ;
#348 = FACE_OUTER_BOUND ( 'NONE', #236, .T. ) ;
#349 = EDGE_CURVE ( 'NONE', #823, #46, #417, .T. ) ;
#350 = VERTEX_POINT ( 'NONE', #583 ) ;
#351 = EDGE_CURVE ( 'NONE', #636, #1009, #134, .T. ) ;
#352 = ORIENTED_EDGE ( 'NONE', *, *, #247, .T. ) ;
#353 = EDGE_CURVE ( 'NONE', #273, #106, #749, .T. ) ;
#354 = CARTESIAN_POINT ( 'NONE',  ( 180.0000000000000000, 79.99999999999998579, 9.000000000000000000 ) ) ;
#355 = ORIENTED_EDGE ( 'NONE', *, *, #495, .T. ) ;
#356 = EDGE_LOOP ( 'NONE', ( #930, #100 ) ) ;
#357 = CYLINDRICAL_SURFACE ( 'NONE', #418, 15.00000000000000000 ) ;
#358 = DIRECTION ( 'NONE',  ( 0.000000000000000000, 1.000000000000000000, -0.000000000000000000 ) ) ;
#359 = ORIENTED_EDGE ( 'NONE', *, *, #411, .F. ) ;
#360 = ORIENTED_EDGE ( 'NONE', *, *, #827, .F. ) ;
#361 = VECTOR ( 'NONE', #973, 1000.000000000000000 ) ;
#362 = DIRECTION ( 'NONE',  ( 0.8320502943378436100, 0.5547001962252291474, 0.000000000000000000 ) ) ;
#363 = VECTOR ( 'NONE', #844, 1000.000000000000000 ) ;
#364 = CARTESIAN_POINT ( 'NONE',  ( 11.99999999999999822, 7.999999999999998224, 9.000000000000000000 ) ) ;
#365 = ORIENTED_EDGE ( 'NONE', *, *, #293, .F. ) ;
#366 = ORIENTED_EDGE ( 'NONE', *, *, #478, .T. ) ;
#367 = ADVANCED_FACE ( 'NONE', ( #391 ), #399, .T. ) ;
#368 = DIRECTION ( 'NONE',  ( 0.000000000000000000, 0.000000000000000000, 1.000000000000000000 ) ) ;
#369 = ADVANCED_FACE ( 'NONE', ( #544 ), #71, .T. ) ;
#370 = ORIENTED_EDGE ( 'NONE', *, *, #274, .F. ) ;
#371 = ORIENTED_EDGE ( 'NONE', *, *, #711, .F. ) ;
#372 = DIRECTION ( 'NONE',  ( 1.000000000000000000, -0.000000000000000000, -0.000000000000000000 ) ) ;
#373 = CARTESIAN_POINT ( 'NONE',  ( 0.5008037165379329858, 120.1267103949417674, -14.36736243471409935 ) ) ;
#374 = LINE ( 'NONE', #477, #500 ) ;
#375 = EDGE_LOOP ( 'NONE', ( #928, #962, #520, #229, #685, #359 ) ) ;
#376 = AXIS2_PLACEMENT_3D ( 'NONE', #10, #577, #160 ) ;
#377 = CYLINDRICAL_SURFACE ( 'NONE', #681, 8.000000000000000000 ) ;
#378 = DIRECTION ( 'NONE',  ( -1.000000000000000000, -1.619075244245020119E-16, 0.000000000000000000 ) ) ;
#379 = VECTOR ( 'NONE', #517, 1000.000000000000000 ) ;
#380 = CARTESIAN_POINT ( 'NONE',  ( -20.00000000000000000, 127.5000000000000000, 4.000000000000001776 ) ) ;
#381 = VERTEX_POINT ( 'NONE', #625 ) ;
#382 = ADVANCED_FACE ( 'NONE', ( #1025, #943 ), #60, .T. ) ;
#383 = FACE_BOUND ( 'NONE', #88, .T. ) ;
#384 = EDGE_CURVE ( 'NONE', #641, #665, #464, .T. ) ;
#385 = PLANE ( 'NONE',  #970 ) ;
#386 = DIRECTION ( 'NONE',  ( 1.000000000000000000, -0.000000000000000000, -0.000000000000000000 ) ) ;
#387 = LINE ( 'NONE', #1027, #345 ) ;
#388 = ORIENTED_EDGE ( 'NONE', *, *, #630, .T. ) ;
#389 = CARTESIAN_POINT ( 'NONE',  ( 0.3250388725426826553, 120.2541183713309749, 14.58115428150201609 ) ) ;
#390 = LINE ( 'NONE', #470, #127 ) ;
#391 = FACE_OUTER_BOUND ( 'NONE', #753, .T. ) ;
#392 = CARTESIAN_POINT ( 'NONE',  ( 20.00000000000000000, 0.000000000000000000, 9.000000000000000000 ) ) ;
#393 = B_SPLINE_CURVE_WITH_KNOTS ( 'NONE', 3,
 ( #331, #754, #908, #429 ),
 .UNSPECIFIED., .F., .F.,
 ( 4, 4 ),
 ( 0.000000000000000000, 0.0008181596542894448328 ),
 .UNSPECIFIED. ) ;
#394 = ORIENTED_EDGE ( 'NONE', *, *, #927, .T. ) ;
#395 = CARTESIAN_POINT ( 'NONE',  ( 0.4452998037747686322, 0.2968665358498469020, -14.43501681259435010 ) ) ;
#396 = EDGE_CURVE ( 'NONE', #76, #46, #969, .T. ) ;
#397 = AXIS2_PLACEMENT_3D ( 'NONE', #78, #554, #1037 ) ;
#398 = CARTESIAN_POINT ( 'NONE',  ( 180.0000000000000000, 120.0000000000000000, 9.000000000000000000 ) ) ;
#399 = CYLINDRICAL_SURFACE ( 'NONE', #695, 15.00000000000000000 ) ;
#400 = AXIS2_PLACEMENT_3D ( 'NONE', #468, #692, #319 ) ;
#401 = DIRECTION ( 'NONE',  ( 0.000000000000000000, 0.000000000000000000, 1.000000000000000000 ) ) ;
#402 = VECTOR ( 'NONE', #167, 1000.000000000000114 ) ;
#403 = CIRCLE ( 'NONE', #347, 15.00000000000000000 ) ;
#404 = ORIENTED_EDGE ( 'NONE', *, *, #578, .F. ) ;
#405 = DIRECTION ( 'NONE',  ( 0.000000000000000000, 0.000000000000000000, 1.000000000000000000 ) ) ;
#406 = DIRECTION ( 'NONE',  ( 0.000000000000000000, 0.000000000000000000, -1.000000000000000000 ) ) ;
#407 = LINE ( 'NONE', #897, #549 ) ;
#408 = CARTESIAN_POINT ( 'NONE',  ( 0.1021556653064095155, 120.5424642239541129, -14.86467592196626164 ) ) ;
#409 = ORIENTED_EDGE ( 'NONE', *, *, #460, .F. ) ;
#410 = CARTESIAN_POINT ( 'NONE',  ( 0.04439846769937225157, 120.6686284449534980, 14.94098772384655760 ) ) ;
#411 = EDGE_CURVE ( 'NONE', #203, #273, #566, .T. ) ;
#412 = CARTESIAN_POINT ( 'NONE',  ( 0.000000000000000000, 0.000000000000000000, 15.00000000000000000 ) ) ;
#413 = DIRECTION ( 'NONE',  ( 0.000000000000000000, -0.000000000000000000, -1.000000000000000000 ) ) ;
#414 = EDGE_LOOP ( 'NONE', ( #118, #614, #190, #686 ) ) ;
#415 = DIRECTION ( 'NONE',  ( 1.000000000000000000, 0.000000000000000000, 0.000000000000000000 ) ) ;
#416 = DIRECTION ( 'NONE',  ( 0.000000000000000000, 0.000000000000000000, -1.000000000000000000 ) ) ;
#417 = LINE ( 'NONE', #889, #402 ) ;
#418 = AXIS2_PLACEMENT_3D ( 'NONE', #597, #603, #917 ) ;
#419 = VERTEX_POINT ( 'NONE', #142 ) ;
#420 = DIRECTION ( 'NONE',  ( 1.000000000000000000, -0.000000000000000000, -0.000000000000000000 ) ) ;
#421 = CARTESIAN_POINT ( 'NONE',  ( 0.000000000000000000, -0.5351837584879963750, -14.99044957113197007 ) ) ;
#422 = DIRECTION ( 'NONE',  ( 0.000000000000000000, -0.000000000000000000, -1.000000000000000000 ) ) ;
#423 = PRODUCT ( 'model 1', 'model 1', '', ( #596 ) ) ;
#424 = VERTEX_POINT ( 'NONE', #455 ) ;
#425 = DIRECTION ( 'NONE',  ( 1.000000000000000000, 0.000000000000000000, 0.000000000000000000 ) ) ;
#426 = ORIENTED_EDGE ( 'NONE', *, *, #119, .F. ) ;
#427 = ORIENTED_EDGE ( 'NONE', *, *, #168, .F. ) ;
#428 = EDGE_CURVE ( 'NONE', #833, #919, #109, .T. ) ;
#429 = CARTESIAN_POINT ( 'NONE',  ( 0.01676003902541847376, 120.8176838483767597, -14.97769652263337115 ) ) ;
#430 = ORIENTED_EDGE ( 'NONE', *, *, #447, .F. ) ;
#431 = CIRCLE ( 'NONE', #397, 8.000000000000003553 ) ;
#432 = EDGE_CURVE ( 'NONE', #350, #600, #435, .T. ) ;
#433 = EDGE_LOOP ( 'NONE', ( #842, #740, #68, #115, #491, #992 ) ) ;
#434 = VECTOR ( 'NONE', #553, 1000.000000000000000 ) ;
#435 = CIRCLE ( 'NONE', #1016, 15.00000000000000000 ) ;
#436 = CARTESIAN_POINT ( 'NONE',  ( 20.00000000000000000, 37.37034183642660423, -15.00000000000000178 ) ) ;
#437 = VERTEX_POINT ( 'NONE', #155 ) ;
#438 = ORIENTED_EDGE ( 'NONE', *, *, #913, .F. ) ;
#439 =( LENGTH_UNIT ( ) NAMED_UNIT ( * ) SI_UNIT ( .MILLI., .METRE. ) );
#440 = CARTESIAN_POINT ( 'NONE',  ( -19.99999999999997868, -3.238150488490036886E-15, -15.00000000000000000 ) ) ;
#441 = ORIENTED_EDGE ( 'NONE', *, *, #820, .F. ) ;
#442 = ORIENTED_EDGE ( 'NONE', *, *, #486, .T. ) ;
#443 = CARTESIAN_POINT ( 'NONE',  ( -11.09400392450458561, 16.64100588675687220, -9.000000000000000000 ) ) ;
#444 = FACE_OUTER_BOUND ( 'NONE', #105, .T. ) ;
#445 = ORIENTED_EDGE ( 'NONE', *, *, #830, .T. ) ;
#446 = VERTEX_POINT ( 'NONE', #699 ) ;
#447 = EDGE_CURVE ( 'NONE', #424, #524, #137, .T. ) ;
#448 = AXIS2_PLACEMENT_3D ( 'NONE', #240, #565, #894 ) ;
#449 = AXIS2_PLACEMENT_3D ( 'NONE', #271, #285, #193 ) ;
#450 = EDGE_CURVE ( 'NONE', #1028, #508, #306, .T. ) ;
#451 = CARTESIAN_POINT ( 'NONE',  ( 180.0000000000000000, 79.99999999999998579, 9.000000000000000000 ) ) ;
#452 = ORIENTED_EDGE ( 'NONE', *, *, #194, .T. ) ;
#453 = ORIENTED_EDGE ( 'NONE', *, *, #411, .T. ) ;
#454 = DIRECTION ( 'NONE',  ( 0.000000000000000000, 0.000000000000000000, -1.000000000000000000 ) ) ;
#455 = CARTESIAN_POINT ( 'NONE',  ( 11.99999999999999822, 120.0000000000000000, -9.000000000000000000 ) ) ;
#456 = LINE ( 'NONE', #392, #74 ) ;
#457 = VERTEX_POINT ( 'NONE', #551 ) ;
#458 = LINE ( 'NONE', #53, #849 ) ;
#459 = CARTESIAN_POINT ( 'NONE',  ( 0.000000000000000000, -0.1458399960210562674, -15.00000000000000000 ) ) ;
#460 = EDGE_CURVE ( 'NONE', #534, #680, #217, .T. ) ;
#461 = CARTESIAN_POINT ( 'NONE',  ( 0.000000000000000000, 0.000000000000000000, 15.00000000000000000 ) ) ;
#462 = VERTEX_POINT ( 'NONE', #938 ) ;
#463 = CARTESIAN_POINT ( 'NONE',  ( -20.00000000000000000, 127.5000000000000000, 0.000000000000000000 ) ) ;
#464 = CIRCLE ( 'NONE', #296, 8.000000000000003553 ) ;
#465 = CARTESIAN_POINT ( 'NONE',  ( 0.004787671560018821534, -0.4374472692883568659, 14.99361997272813696 ) ) ;
#466 = CARTESIAN_POINT ( 'NONE',  ( 0.000000000000000000, 0.000000000000000000, 0.000000000000000000 ) ) ;
#467 = CIRCLE ( 'NONE', #718, 4.000000000000001776 ) ;
#468 = CARTESIAN_POINT ( 'NONE',  ( -20.00000000000000000, -7.500000000000000000, 0.000000000000000000 ) ) ;
#469 = LINE ( 'NONE', #309, #248 ) ;
#470 = CARTESIAN_POINT ( 'NONE',  ( 180.0000000000000000, 79.99999999999998579, 9.000000000000000000 ) ) ;
#471 = LINE ( 'NONE', #789, #574 ) ;
#472 = DIRECTION ( 'NONE',  ( 0.000000000000000000, -1.000000000000000000, 0.000000000000000000 ) ) ;
#473 = ORIENTED_EDGE ( 'NONE', *, *, #428, .T. ) ;
#474 = DIRECTION ( 'NONE',  ( -1.619075244245020119E-16, 1.000000000000000000, 0.000000000000000000 ) ) ;
#475 = DIRECTION ( 'NONE',  ( -0.000000000000000000, 0.000000000000000000, 1.000000000000000000 ) ) ;
#476 = CARTESIAN_POINT ( 'NONE',  ( 0.2444072308759950019, 0.1357298741649034801, 14.68211993362333345 ) ) ;
#477 = CARTESIAN_POINT ( 'NONE',  ( 180.0000000000000000, 120.0000000000000000, 9.000000000000000000 ) ) ;
#478 = EDGE_CURVE ( 'NONE', #216, #769, #471, .T. ) ;
#479 = ORIENTED_EDGE ( 'NONE', *, *, #848, .F. ) ;
#480 = CARTESIAN_POINT ( 'NONE',  ( 0.5018268563041032859, 120.1260804119001904, 14.36613336431847365 ) ) ;
#481 = FACE_OUTER_BOUND ( 'NONE', #487, .T. ) ;
#482 = DIRECTION ( 'NONE',  ( 1.000000000000000000, -0.000000000000000000, -0.000000000000000000 ) ) ;
#483 = EDGE_CURVE ( 'NONE', #256, #923, #556, .T. ) ;
#484 = SURFACE_STYLE_FILL_AREA ( #899 ) ;
#485 = VECTOR ( 'NONE', #195, 1000.000000000000000 ) ;
#486 = EDGE_CURVE ( 'NONE', #340, #284, #112, .T. ) ;
#487 = EDGE_LOOP ( 'NONE', ( #606, #277, #50, #28 ) ) ;
#488 = DIRECTION ( 'NONE',  ( 1.000000000000000000, 0.000000000000000000, 0.000000000000000000 ) ) ;
#489 = CARTESIAN_POINT ( 'NONE',  ( 11.99999999999999822, 120.0000000000000000, -24.00000000000000000 ) ) ;
#490 = CARTESIAN_POINT ( 'NONE',  ( 180.0000000000000000, 120.0000000000000000, -9.000000000000000000 ) ) ;
#491 = ORIENTED_EDGE ( 'NONE', *, *, #523, .T. ) ;
#492 = DIRECTION ( 'NONE',  ( -1.000000000000000000, 0.000000000000000000, 0.000000000000000000 ) ) ;
#493 = DIRECTION ( 'NONE',  ( 1.000000000000000000, -0.000000000000000000, -0.000000000000000000 ) ) ;
#494 = CARTESIAN_POINT ( 'NONE',  ( -19.99999999999997868, 0.000000000000000000, 15.00000000000000000 ) ) ;
#495 = EDGE_CURVE ( 'NONE', #46, #272, #800, .T. ) ;
#496 = VERTEX_POINT ( 'NONE', #323 ) ;
#497 = CARTESIAN_POINT ( 'NONE',  ( 0.9999999999999991118, 120.0000000000000000, 13.80196097281442924 ) ) ;
#498 = CARTESIAN_POINT ( 'NONE',  ( 150.2775637731994323, 79.99999999999998579, -9.000000000000000000 ) ) ;
#499 = DIRECTION ( 'NONE',  ( -1.000000000000000000, 0.000000000000000000, 0.000000000000000000 ) ) ;
#500 = VECTOR ( 'NONE', #790, 1000.000000000000000 ) ;
#501 = AXIS2_PLACEMENT_3D ( 'NONE', #30, #732, #903 ) ;
#502 = EDGE_LOOP ( 'NONE', ( #920, #371, #276, #731, #20, #1000 ) ) ;
#503 = CARTESIAN_POINT ( 'NONE',  ( 1.000000000000000000, -0.5351837584879963750, 9.000000000000000000 ) ) ;
#504 = VERTEX_POINT ( 'NONE', #739 ) ;
#505 = ADVANCED_FACE ( 'NONE', ( #337 ), #887, .T. ) ;
#506 = VERTEX_POINT ( 'NONE', #498 ) ;
#507 = LINE ( 'NONE', #824, #865 ) ;
#508 = VERTEX_POINT ( 'NONE', #15 ) ;
#509 = ORIENTED_EDGE ( 'NONE', *, *, #666, .F. ) ;
#510 = FACE_BOUND ( 'NONE', #82, .T. ) ;
#511 = ORIENTED_EDGE ( 'NONE', *, *, #635, .T. ) ;
#512 = MECHANICAL_DESIGN_GEOMETRIC_PRESENTATION_REPRESENTATION (  '', ( #967 ), #92 ) ;
#513 = ORIENTED_EDGE ( 'NONE', *, *, #827, .T. ) ;
#514 = CIRCLE ( 'NONE', #328, 15.00000000000000000 ) ;
#515 = EDGE_CURVE ( 'NONE', #627, #661, #407, .T. ) ;
#516 = AXIS2_PLACEMENT_3D ( 'NONE', #503, #649, #95 ) ;
#517 = DIRECTION ( 'NONE',  ( -0.000000000000000000, -0.000000000000000000, -1.000000000000000000 ) ) ;
#518 = CARTESIAN_POINT ( 'NONE',  ( -20.00000000000000000, 120.0000000000000142, -15.00000000000000000 ) ) ;
#519 = EDGE_LOOP ( 'NONE', ( #701, #269, #525, #43, #427, #260 ) ) ;
#520 = ORIENTED_EDGE ( 'NONE', *, *, #1003, .F. ) ;
#521 = PRODUCT_DEFINITION_SHAPE ( 'NONE', 'NONE',  #131 ) ;
#522 = CARTESIAN_POINT ( 'NONE',  ( 0.01676003902541845642, 120.8176838483767597, 14.97769652263337115 ) ) ;
#523 = EDGE_CURVE ( 'NONE', #665, #496, #571, .T. ) ;
#524 = VERTEX_POINT ( 'NONE', #490 ) ;
#525 = ORIENTED_EDGE ( 'NONE', *, *, #756, .T. ) ;
#526 = EDGE_CURVE ( 'NONE', #680, #919, #604, .T. ) ;
#527 =( NAMED_UNIT ( * ) PLANE_ANGLE_UNIT ( ) SI_UNIT ( $, .RADIAN. ) );
#528 = CARTESIAN_POINT ( 'NONE',  ( -20.00000000000000000, 127.5000000000000000, 0.000000000000000000 ) ) ;
#529 = EDGE_LOOP ( 'NONE', ( #891, #909, #822, #360 ) ) ;
#530 = EDGE_LOOP ( 'NONE', ( #201, #513 ) ) ;
#531 = AXIS2_PLACEMENT_3D ( 'NONE', #528, #1010, #202 ) ;
#532 = CARTESIAN_POINT ( 'NONE',  ( 180.0000000000000000, 79.99999999999998579, -9.000000000000000000 ) ) ;
#533 = LINE ( 'NONE', #557, #884 ) ;
#534 = VERTEX_POINT ( 'NONE', #965 ) ;
#535 = EDGE_CURVE ( 'NONE', #823, #990, #315, .T. ) ;
#536 = ADVANCED_FACE ( 'NONE', ( #85 ), #3, .F. ) ;
#537 = DIRECTION ( 'NONE',  ( 1.619075244245020119E-16, -1.000000000000000000, 0.000000000000000000 ) ) ;
#538 = CARTESIAN_POINT ( 'NONE',  ( 0.000000000000000000, 0.000000000000000000, 9.000000000000000000 ) ) ;
#539 = ADVANCED_FACE ( 'NONE', ( #332 ), #893, .F. ) ;
#540 = FACE_BOUND ( 'NONE', #530, .T. ) ;
#541 = ORIENTED_EDGE ( 'NONE', *, *, #913, .T. ) ;
#542 = B_SPLINE_CURVE_WITH_KNOTS ( 'NONE', 3,
 ( #317, #959, #141, #465 ),
 .UNSPECIFIED., .F., .F.,
 ( 4, 4 ),
 ( 0.000000000000000000, 9.790502829946408228E-05 ),
 .UNSPECIFIED. ) ;
#543 = CARTESIAN_POINT ( 'NONE',  ( 32.43760156980184206, 45.66207621629449420, 9.000000000000000000 ) ) ;
#544 = FACE_OUTER_BOUND ( 'NONE', #114, .T. ) ;
#545 = CARTESIAN_POINT ( 'NONE',  ( 94.80754415067650598, 63.20502943378433969, 9.000000000000000000 ) ) ;
#546 = ORIENTED_EDGE ( 'NONE', *, *, #483, .T. ) ;
#547 = UNCERTAINTY_MEASURE_WITH_UNIT (LENGTH_MEASURE( 1.000000000000000082E-05 ), #333, 'distance_accuracy_value', 'NONE');
#548 = DIRECTION ( 'NONE',  ( 1.000000000000000000, 0.000000000000000000, 0.000000000000000000 ) ) ;
#549 = VECTOR ( 'NONE', #246, 1000.000000000000000 ) ;
#550 = LINE ( 'NONE', #70, #77 ) ;
#551 = CARTESIAN_POINT ( 'NONE',  ( 0.000000000000000000, -0.5351837584879963750, 14.99044957113197007 ) ) ;
#552 = CIRCLE ( 'NONE', #8, 15.00000000000000000 ) ;
#553 = DIRECTION ( 'NONE',  ( 1.000000000000000000, -0.000000000000000000, -0.000000000000000000 ) ) ;
#554 = DIRECTION ( 'NONE',  ( -0.000000000000000000, 0.000000000000000000, 1.000000000000000000 ) ) ;
#555 = CARTESIAN_POINT ( 'NONE',  ( 87.52228214350411406, 92.00000000000000000, -9.000000000000000000 ) ) ;
#556 = LINE ( 'NONE', #80, #734 ) ;
#557 = CARTESIAN_POINT ( 'NONE',  ( 32.43760156980183496, 45.66207621629449420, 9.000000000000000000 ) ) ;
#558 = EDGE_CURVE ( 'NONE', #462, #504, #715, .T. ) ;
#559 = EDGE_LOOP ( 'NONE', ( #995, #765, #674, #334, #839, #452 ) ) ;
#560 = EDGE_CURVE ( 'NONE', #457, #833, #514, .T. ) ;
#561 = DIRECTION ( 'NONE',  ( 0.000000000000000000, 0.000000000000000000, 1.000000000000000000 ) ) ;
#562 = DIRECTION ( 'NONE',  ( 1.000000000000000000, -0.000000000000000000, -0.000000000000000000 ) ) ;
#563 = CARTESIAN_POINT ( 'NONE',  ( 0.000000000000000000, 0.000000000000000000, 15.00000000000000000 ) ) ;
#564 = ADVANCED_FACE ( 'NONE', ( #90 ), #377, .F. ) ;
#565 = DIRECTION ( 'NONE',  ( -0.000000000000000000, 0.000000000000000000, 1.000000000000000000 ) ) ;
#566 = B_SPLINE_CURVE_WITH_KNOTS ( 'NONE', 3,
 ( #563, #860, #54, #879 ),
 .UNSPECIFIED., .F., .F.,
 ( 4, 4 ),
 ( 0.000000000000000000, 0.0004375199880631701647 ),
 .UNSPECIFIED. ) ;
#567 = ORIENTED_EDGE ( 'NONE', *, *, #353, .T. ) ;
#568 = CARTESIAN_POINT ( 'NONE',  ( 0.000000000000000000, 120.0000000000000142, 0.000000000000000000 ) ) ;
#569 = CLOSED_SHELL ( 'NONE', ( #669, #539, #369, #267, #221, #382, #150, #1005, #72, #741, #335, #675, #264, #890, #850, #941, #564, #51, #18, #966, #743, #505, #367, #1017, #29, #593, #1042, #875, #898, #536 ) ) ;
#570 = DIRECTION ( 'NONE',  ( 1.000000000000000000, 0.000000000000000000, 0.000000000000000000 ) ) ;
#571 = LINE ( 'NONE', #723, #766 ) ;
#572 = VECTOR ( 'NONE', #422, 1000.000000000000000 ) ;
#573 = CARTESIAN_POINT ( 'NONE',  ( 0.04443205670701627641, 120.6684472977854057, -14.94094311160981192 ) ) ;
#574 = VECTOR ( 'NONE', #65, 1000.000000000000000 ) ;
#575 = PLANE ( 'NONE',  #52 ) ;
#576 = CYLINDRICAL_SURFACE ( 'NONE', #904, 8.000000000000000000 ) ;
#577 = DIRECTION ( 'NONE',  ( -1.000000000000000000, -1.619075244245020119E-16, 0.000000000000000000 ) ) ;
#578 = EDGE_CURVE ( 'NONE', #769, #106, #929, .T. ) ;
#579 = CARTESIAN_POINT ( 'NONE',  ( 150.2775637731994323, 79.99999999999998579, 9.000000000000000000 ) ) ;
#580 = ORIENTED_EDGE ( 'NONE', *, *, #215, .T. ) ;
#581 = DIRECTION ( 'NONE',  ( -0.000000000000000000, -0.000000000000000000, 1.000000000000000000 ) ) ;
#582 = CARTESIAN_POINT ( 'NONE',  ( 91.95988371330594191, 85.34359764529725112, -9.000000000000000000 ) ) ;
#583 = CARTESIAN_POINT ( 'NONE',  ( -20.00000000000000000, 120.0000000000000142, 15.00000000000000000 ) ) ;
#584 = CARTESIAN_POINT ( 'NONE',  ( 0.4452998037747708526, 0.2968665358498472351, 9.000000000000000000 ) ) ;
#585 = PLANE ( 'NONE',  #780 ) ;
#586 = ORIENTED_EDGE ( 'NONE', *, *, #853, .F. ) ;
#587 = AXIS2_PLACEMENT_3D ( 'NONE', #997, #762, #39 ) ;
#588 = EDGE_LOOP ( 'NONE', ( #426, #845, #205, #186, #177, #162 ) ) ;
#589 = CARTESIAN_POINT ( 'NONE',  ( 20.00000000000000000, 52.31847857099724308, 9.000000000000000000 ) ) ;
#590 = ORIENTED_EDGE ( 'NONE', *, *, #1014, .T. ) ;
#591 = ORIENTED_EDGE ( 'NONE', *, *, #663, .T. ) ;
#592 = FACE_OUTER_BOUND ( 'NONE', #854, .T. ) ;
#593 = ADVANCED_FACE ( 'NONE', ( #444 ), #612, .F. ) ;
#594 = ORIENTED_EDGE ( 'NONE', *, *, #578, .T. ) ;
#595 = EDGE_LOOP ( 'NONE', ( #745, #120, #438, #1043, #210, #62 ) ) ;
#596 = PRODUCT_CONTEXT ( 'NONE', #1018, 'mechanical' ) ;
#597 = CARTESIAN_POINT ( 'NONE',  ( 0.000000000000000000, 120.0000000000000142, 0.000000000000000000 ) ) ;
#598 = ORIENTED_EDGE ( 'NONE', *, *, #304, .T. ) ;
#599 = AXIS2_PLACEMENT_3D ( 'NONE', #1032, #956, #297 ) ;
#600 = VERTEX_POINT ( 'NONE', #763 ) ;
#601 = EDGE_CURVE ( 'NONE', #187, #876, #1026, .T. ) ;
#602 = AXIS2_PLACEMENT_3D ( 'NONE', #837, #998, #122 ) ;
#603 = DIRECTION ( 'NONE',  ( 1.000000000000000000, 0.000000000000000000, 0.000000000000000000 ) ) ;
#604 = B_SPLINE_CURVE_WITH_KNOTS ( 'NONE', 3,
 ( #1047, #659, #644, #421 ),
 .UNSPECIFIED., .F., .F.,
 ( 4, 4 ),
 ( 0.000000000000000000, 9.790502829946419070E-05 ),
 .UNSPECIFIED. ) ;
#605 = DIRECTION ( 'NONE',  ( 1.000000000000000000, 0.000000000000000000, 0.000000000000000000 ) ) ;
#606 = ORIENTED_EDGE ( 'NONE', *, *, #183, .T. ) ;
#607 = ORIENTED_EDGE ( 'NONE', *, *, #613, .F. ) ;
#608 = CARTESIAN_POINT ( 'NONE',  ( 1.000000000000000000, 120.0000000000000000, 9.000000000000000000 ) ) ;
#609 = LINE ( 'NONE', #619, #999 ) ;
#610 = EDGE_LOOP ( 'NONE', ( #761, #835, #388, #996 ) ) ;
#611 = ORIENTED_EDGE ( 'NONE', *, *, #1014, .F. ) ;
#612 = PLANE ( 'NONE',  #278 ) ;
#613 = EDGE_CURVE ( 'NONE', #330, #76, #922, .T. ) ;
#614 = ORIENTED_EDGE ( 'NONE', *, *, #932, .T. ) ;
#615 = DIRECTION ( 'NONE',  ( -1.000000000000000000, 0.000000000000000000, 0.000000000000000000 ) ) ;
#616 = CARTESIAN_POINT ( 'NONE',  ( 0.08490774481236942894, -0.1066377286060150725, 14.88696390684049042 ) ) ;
#617 = DIRECTION ( 'NONE',  ( 0.000000000000000000, 0.000000000000000000, 1.000000000000000000 ) ) ;
#618 = ORIENTED_EDGE ( 'NONE', *, *, #152, .F. ) ;
#619 = CARTESIAN_POINT ( 'NONE',  ( 0.000000000000000000, 120.0000000000000000, 9.000000000000000000 ) ) ;
#620 = DIRECTION ( 'NONE',  ( 0.8320502943378437211, 0.5547001962252290364, 0.000000000000000000 ) ) ;
#621 = CARTESIAN_POINT ( 'NONE',  ( 91.95988371330597033, 85.34359764529726533, -9.000000000000000000 ) ) ;
#622 = ORIENTED_EDGE ( 'NONE', *, *, #241, .F. ) ;
#623 = CARTESIAN_POINT ( 'NONE',  ( 20.00000000000000000, 92.00000000000000000, 9.000000000000000000 ) ) ;
#624 = DIRECTION ( 'NONE',  ( 0.000000000000000000, 0.000000000000000000, 1.000000000000000000 ) ) ;
#625 = CARTESIAN_POINT ( 'NONE',  ( -19.99999999999997868, 0.000000000000000000, -15.00000000000000000 ) ) ;
#626 = CARTESIAN_POINT ( 'NONE',  ( -20.00000000000000000, -7.500000000000000000, -4.000000000000000888 ) ) ;
#627 = VERTEX_POINT ( 'NONE', #518 ) ;
#628 = AXIS2_PLACEMENT_3D ( 'NONE', #568, #140, #405 ) ;
#629 = DIRECTION ( 'NONE',  ( 0.000000000000000000, 1.000000000000000000, 0.000000000000000000 ) ) ;
#630 = EDGE_CURVE ( 'NONE', #198, #504, #282, .T. ) ;
#631 = CYLINDRICAL_SURFACE ( 'NONE', #1036, 7.999999999999992895 ) ;
#632 = DIRECTION ( 'NONE',  ( 1.000000000000000000, 0.000000000000000000, 0.000000000000000000 ) ) ;
#633 = VECTOR ( 'NONE', #799, 1000.000000000000000 ) ;
#634 = CARTESIAN_POINT ( 'NONE',  ( -20.00000000000000000, -7.499999999999999112, 4.000000000000000888 ) ) ;
#635 = EDGE_CURVE ( 'NONE', #288, #680, #275, .T. ) ;
#636 = VERTEX_POINT ( 'NONE', #698 ) ;
#637 = CARTESIAN_POINT ( 'NONE',  ( 180.0000000000000000, 120.0000000000000000, 9.000000000000000000 ) ) ;
#638 = CARTESIAN_POINT ( 'NONE',  ( -20.00000000000000000, 120.0000000000000142, 15.00000000000000000 ) ) ;
#639 = DIRECTION ( 'NONE',  ( 1.000000000000000000, 0.000000000000000000, 0.000000000000000000 ) ) ;
#640 = CARTESIAN_POINT ( 'NONE',  ( -19.99999999999997513, -15.00000000000000000, 0.000000000000000000 ) ) ;
#641 = VERTEX_POINT ( 'NONE', #206 ) ;
#642 = CARTESIAN_POINT ( 'NONE',  ( 0.8949855677441126423, 119.9999999999999716, 13.91523360804708176 ) ) ;
#643 = CARTESIAN_POINT ( 'NONE',  ( 0.01676003902541847376, 120.8176838483767597, -14.97769652263337115 ) ) ;
#644 = CARTESIAN_POINT ( 'NONE',  ( -1.374922589888014136E-16, -0.5025695276105882625, -14.99161395293241839 ) ) ;
#645 = CARTESIAN_POINT ( 'NONE',  ( 0.01676003902541847376, 120.8176838483767597, -14.97769652263337115 ) ) ;
#646 = CARTESIAN_POINT ( 'NONE',  ( 11.99999999999999822, 7.999999999999998224, -9.000000000000000000 ) ) ;
#647 = EDGE_CURVE ( 'NONE', #284, #203, #299, .T. ) ;
#648 = PRESENTATION_LAYER_ASSIGNMENT (  '', '', ( #967 ) ) ;
#649 = DIRECTION ( 'NONE',  ( 0.000000000000000000, 0.000000000000000000, -1.000000000000000000 ) ) ;
#650 = DIRECTION ( 'NONE',  ( 0.000000000000000000, 0.000000000000000000, -1.000000000000000000 ) ) ;
#651 = AXIS2_PLACEMENT_3D ( 'NONE', #99, #415, #253 ) ;
#652 = UNCERTAINTY_MEASURE_WITH_UNIT (LENGTH_MEASURE( 1.000000000000000082E-05 ), #439, 'distance_accuracy_value', 'NONE');
#653 = ORIENTED_EDGE ( 'NONE', *, *, #37, .F. ) ;
#654 = CARTESIAN_POINT ( 'NONE',  ( 0.000000000000000000, -0.5351837584879963750, -14.99044957113197007 ) ) ;
#655 = DIRECTION ( 'NONE',  ( 1.000000000000000000, -0.000000000000000000, -0.000000000000000000 ) ) ;
#656 = SURFACE_SIDE_STYLE ('',( #484 ) ) ;
#657 = CARTESIAN_POINT ( 'NONE',  ( 11.99999999999999822, 120.0000000000000000, 9.000000000000000000 ) ) ;
#658 = DIRECTION ( 'NONE',  ( 0.000000000000000000, 0.000000000000000000, -1.000000000000000000 ) ) ;
#659 = CARTESIAN_POINT ( 'NONE',  ( 0.001599384024092955848, -0.4699123505323087868, -14.99267278578040852 ) ) ;
#660 = ORIENTED_EDGE ( 'NONE', *, *, #803, .F. ) ;
#661 = VERTEX_POINT ( 'NONE', #41 ) ;
#662 = DIRECTION ( 'NONE',  ( 1.000000000000000000, 0.000000000000000000, 0.000000000000000000 ) ) ;
#663 = EDGE_CURVE ( 'NONE', #16, #713, #609, .T. ) ;
#664 = CIRCLE ( 'NONE', #343, 4.000000000000001776 ) ;
#665 = VERTEX_POINT ( 'NONE', #1008 ) ;
#666 = EDGE_CURVE ( 'NONE', #506, #446, #199, .T. ) ;
#667 = EDGE_LOOP ( 'NONE', ( #774, #770, #339, #757, #915, #144 ) ) ;
#668 = DIRECTION ( 'NONE',  ( 0.000000000000000000, 1.000000000000000000, 0.000000000000000000 ) ) ;
#669 = ADVANCED_FACE ( 'NONE', ( #926 ), #690, .F. ) ;
#670 = PLANE ( 'NONE',  #449 ) ;
#671 = EDGE_LOOP ( 'NONE', ( #983, #511, #409, #847, #541, #838, #441, #618 ) ) ;
#672 = EDGE_LOOP ( 'NONE', ( #901, #370, #764, #182 ) ) ;
#673 = EDGE_LOOP ( 'NONE', ( #404, #622, #825, #949, #128, #479, #453, #567 ) ) ;
#674 = ORIENTED_EDGE ( 'NONE', *, *, #478, .F. ) ;
#675 = ADVANCED_FACE ( 'NONE', ( #294 ), #937, .F. ) ;
#676 = PLANE ( 'NONE',  #587 ) ;
#677 = CARTESIAN_POINT ( 'NONE',  ( 0.004787671560018823269, -0.4374472692883567548, -14.99361997272813696 ) ) ;
#678 = ORIENTED_EDGE ( 'NONE', *, *, #911, .F. ) ;
#679 = VECTOR ( 'NONE', #4, 1000.000000000000000 ) ;
#680 = VERTEX_POINT ( 'NONE', #117 ) ;
#681 = AXIS2_PLACEMENT_3D ( 'NONE', #771, #454, #615 ) ;
#682 = AXIS2_PLACEMENT_3D ( 'NONE', #709, #1039, #406 ) ;
#683 = CARTESIAN_POINT ( 'NONE',  ( 0.9999999999999991118, 120.0000000000000000, -13.80196097281442924 ) ) ;
#684 = CARTESIAN_POINT ( 'NONE',  ( 0.000000000000000000, 0.000000000000000000, 15.00000000000000000 ) ) ;
#685 = ORIENTED_EDGE ( 'NONE', *, *, #746, .T. ) ;
#686 = ORIENTED_EDGE ( 'NONE', *, *, #515, .T. ) ;
#687 = EDGE_CURVE ( 'NONE', #627, #381, #212, .T. ) ;
#688 = CARTESIAN_POINT ( 'NONE',  ( 0.02226241007546439499, -0.2595088621565733167, -14.97034611594638776 ) ) ;
#689 = ORIENTED_EDGE ( 'NONE', *, *, #338, .F. ) ;
#690 = CYLINDRICAL_SURFACE ( 'NONE', #531, 4.000000000000001776 ) ;
#691 = DIRECTION ( 'NONE',  ( 0.000000000000000000, -0.000000000000000000, -1.000000000000000000 ) ) ;
#692 = DIRECTION ( 'NONE',  ( 1.000000000000000000, 0.000000000000000000, 0.000000000000000000 ) ) ;
#693 = VECTOR ( 'NONE', #1044, 1000.000000000000000 ) ;
#694 = VECTOR ( 'NONE', #472, 1000.000000000000000 ) ;
#695 = AXIS2_PLACEMENT_3D ( 'NONE', #1031, #784, #710 ) ;
#696 = VECTOR ( 'NONE', #372, 1000.000000000000000 ) ;
#697 = EDGE_CURVE ( 'NONE', #330, #641, #125, .T. ) ;
#698 = CARTESIAN_POINT ( 'NONE',  ( 0.01676003902541847376, 120.8176838483767597, -14.97769652263337115 ) ) ;
#699 = CARTESIAN_POINT ( 'NONE',  ( 180.0000000000000000, 79.99999999999998579, -9.000000000000000000 ) ) ;
#700 = DIRECTION ( 'NONE',  ( -1.000000000000000000, 0.000000000000000000, 0.000000000000000000 ) ) ;
#701 = ORIENTED_EDGE ( 'NONE', *, *, #726, .F. ) ;
#702 = CYLINDRICAL_SURFACE ( 'NONE', #902, 15.00000000000000000 ) ;
#703 = CARTESIAN_POINT ( 'NONE',  ( 87.52228214350411406, 92.00000000000000000, -15.00000000000000178 ) ) ;
#704 = DIRECTION ( 'NONE',  ( 1.000000000000000000, 0.000000000000000000, 0.000000000000000000 ) ) ;
#705 = CARTESIAN_POINT ( 'NONE',  ( 0.004787671560018821534, -0.4374472692883568659, 14.99361997272813696 ) ) ;
#706 = ORIENTED_EDGE ( 'NONE', *, *, #87, .T. ) ;
#707 = EDGE_CURVE ( 'NONE', #157, #45, #458, .T. ) ;
#708 = CARTESIAN_POINT ( 'NONE',  ( 0.1021129321901376591, 120.5424189474751984, 14.86472523750030206 ) ) ;
#709 = CARTESIAN_POINT ( 'NONE',  ( -20.00000000000000000, 127.5000000000000000, 0.000000000000000000 ) ) ;
#710 = DIRECTION ( 'NONE',  ( 0.000000000000000000, 0.000000000000000000, -1.000000000000000000 ) ) ;
#711 = EDGE_CURVE ( 'NONE', #919, #457, #550, .T. ) ;
#712 = DIRECTION ( 'NONE',  ( 0.000000000000000000, 0.000000000000000000, 1.000000000000000000 ) ) ;
#713 = VERTEX_POINT ( 'NONE', #398 ) ;
#714 = CARTESIAN_POINT ( 'NONE',  ( 0.9999999999999991118, 120.0000000000000000, 13.80196097281442924 ) ) ;
#715 = CIRCLE ( 'NONE', #94, 4.000000000000000888 ) ;
#716 = CARTESIAN_POINT ( 'NONE',  ( 0.000000000000000000, 0.000000000000000000, 15.00000000000000000 ) ) ;
#717 = CARTESIAN_POINT ( 'NONE',  ( 0.7932825882852647670, 120.0161072608904504, -14.02843512591466890 ) ) ;
#718 = AXIS2_PLACEMENT_3D ( 'NONE', #245, #1030, #624 ) ;
#719 = DIRECTION ( 'NONE',  ( 1.619075244245020119E-16, -1.000000000000000000, 0.000000000000000000 ) ) ;
#720 = VERTEX_POINT ( 'NONE', #728 ) ;
#721 = PLANE ( 'NONE',  #310 ) ;
#722 = CARTESIAN_POINT ( 'NONE',  ( 0.000000000000000000, 120.9387389097231988, -14.97072272586283681 ) ) ;
#723 = CARTESIAN_POINT ( 'NONE',  ( 20.00000000000000000, 0.000000000000000000, -9.000000000000000000 ) ) ;
#724 = CARTESIAN_POINT ( 'NONE',  ( -0.000000000000000000, 0.000000000000000000, -9.000000000000000000 ) ) ;
#725 = ORIENTED_EDGE ( 'NONE', *, *, #932, .F. ) ;
#726 = EDGE_CURVE ( 'NONE', #187, #350, #154, .T. ) ;
#727 = CARTESIAN_POINT ( 'NONE',  ( -19.99999999999997868, -3.238150488490036886E-15, 15.00000000000000000 ) ) ;
#728 = CARTESIAN_POINT ( 'NONE',  ( 11.99999999999999822, 7.999999999999998224, -9.000000000000000000 ) ) ;
#729 = DIRECTION ( 'NONE',  ( -1.000000000000000000, 0.000000000000000000, -0.000000000000000000 ) ) ;
#730 = DIRECTION ( 'NONE',  ( 0.000000000000000000, 0.000000000000000000, 1.000000000000000000 ) ) ;
#731 = ORIENTED_EDGE ( 'NONE', *, *, #635, .F. ) ;
#732 = DIRECTION ( 'NONE',  ( -0.000000000000000000, -1.000000000000000000, -0.000000000000000000 ) ) ;
#733 = CARTESIAN_POINT ( 'NONE',  ( 1.000000000000000000, 121.0000000000000000, 15.00000000000000000 ) ) ;
#734 = VECTOR ( 'NONE', #482, 1000.000000000000000 ) ;
#735 = SURFACE_STYLE_USAGE ( .BOTH. , #656 ) ;
#736 = VECTOR ( 'NONE', #581, 1000.000000000000000 ) ;
#737 = ORIENTED_EDGE ( 'NONE', *, *, #1002, .F. ) ;
#738 = CYLINDRICAL_SURFACE ( 'NONE', #752, 100.0000000000000000 ) ;
#739 = CARTESIAN_POINT ( 'NONE',  ( 0.000000000000000000, -7.500000000000000000, -4.000000000000000888 ) ) ;
#740 = ORIENTED_EDGE ( 'NONE', *, *, #803, .T. ) ;
#741 = ADVANCED_FACE ( 'NONE', ( #481 ), #385, .T. ) ;
#742 = CARTESIAN_POINT ( 'NONE',  ( 150.2775637731994323, -20.00000000000001776, -9.000000000000000000 ) ) ;
#743 = ADVANCED_FACE ( 'NONE', ( #806 ), #942, .F. ) ;
#744 = ORIENTED_EDGE ( 'NONE', *, *, #988, .T. ) ;
#745 = ORIENTED_EDGE ( 'NONE', *, *, #830, .F. ) ;
#746 = EDGE_CURVE ( 'NONE', #457, #273, #542, .T. ) ;
#747 = CYLINDRICAL_SURFACE ( 'NONE', #38, 15.00000000000000000 ) ;
#748 = DIRECTION ( 'NONE',  ( -1.000000000000000000, 0.000000000000000000, -0.000000000000000000 ) ) ;
#749 = B_SPLINE_CURVE_WITH_KNOTS ( 'NONE', 3,
 ( #873, #1040, #616, #476, #318, #48 ),
 .UNSPECIFIED., .F., .F.,
 ( 4, 2, 4 ),
 ( 0.000000000000000000, 0.0005293538908898542776, 0.001058707781779708555 ),
 .UNSPECIFIED. ) ;
#750 = AXIS2_PLACEMENT_3D ( 'NONE', #772, #312, #620 ) ;
#751 = ORIENTED_EDGE ( 'NONE', *, *, #495, .F. ) ;
#752 = AXIS2_PLACEMENT_3D ( 'NONE', #980, #103, #492 ) ;
#753 = EDGE_LOOP ( 'NONE', ( #17, #725, #290, #196, #786, #910 ) ) ;
#754 = CARTESIAN_POINT ( 'NONE',  ( -1.893475508494340657E-16, 120.2728785790236827, -15.00000000000000000 ) ) ;
#755 = EDGE_LOOP ( 'NONE', ( #263, #31, #445 ) ) ;
#756 = EDGE_CURVE ( 'NONE', #876, #157, #211, .T. ) ;
#757 = ORIENTED_EDGE ( 'NONE', *, *, #396, .T. ) ;
#758 = DIRECTION ( 'NONE',  ( 1.000000000000000000, 0.000000000000000000, 0.000000000000000000 ) ) ;
#759 = CARTESIAN_POINT ( 'NONE',  ( 87.52228214350411406, 99.99999999999998579, 9.000000000000000000 ) ) ;
#760 = ORIENTED_EDGE ( 'NONE', *, *, #1002, .T. ) ;
#761 = ORIENTED_EDGE ( 'NONE', *, *, #180, .F. ) ;
#762 = DIRECTION ( 'NONE',  ( -1.000000000000000000, 0.000000000000000000, 0.000000000000000000 ) ) ;
#763 = CARTESIAN_POINT ( 'NONE',  ( -20.00000000000000000, 135.0000000000000000, 0.000000000000000000 ) ) ;
#764 = ORIENTED_EDGE ( 'NONE', *, *, #861, .F. ) ;
#765 = ORIENTED_EDGE ( 'NONE', *, *, #241, .T. ) ;
#766 = VECTOR ( 'NONE', #816, 1000.000000000000000 ) ;
#767 = VECTOR ( 'NONE', #34, 1000.000000000000000 ) ;
#768 = CARTESIAN_POINT ( 'NONE',  ( 0.005569742831635931049, 120.5454400381889570, 14.99255924642235627 ) ) ;
#769 = VERTEX_POINT ( 'NONE', #793 ) ;
#770 = ORIENTED_EDGE ( 'NONE', *, *, #861, .T. ) ;
#771 = CARTESIAN_POINT ( 'NONE',  ( 28.00000000000000000, 92.00000000000000000, -15.00000000000000178 ) ) ;
#772 = CARTESIAN_POINT ( 'NONE',  ( 0.000000000000000000, 0.000000000000000000, 9.000000000000000000 ) ) ;
#773 = FACE_OUTER_BOUND ( 'NONE', #36, .T. ) ;
#774 = ORIENTED_EDGE ( 'NONE', *, *, #247, .F. ) ;
#775 = EDGE_CURVE ( 'NONE', #283, #791, #390, .T. ) ;
#776 = CARTESIAN_POINT ( 'NONE',  ( 0.4452998037747686322, 0.2968665358498469020, -14.43501681259435010 ) ) ;
#777 = CARTESIAN_POINT ( 'NONE',  ( 87.52228214350411406, 92.00000000000000000, 9.000000000000000000 ) ) ;
#778 = CARTESIAN_POINT ( 'NONE',  ( 0.000000000000000000, 0.000000000000000000, 15.00000000000000000 ) ) ;
#779 = AXIS2_PLACEMENT_3D ( 'NONE', #733, #416, #258 ) ;
#780 = AXIS2_PLACEMENT_3D ( 'NONE', #436, #810, #991 ) ;
#781 = CARTESIAN_POINT ( 'NONE',  ( 0.4452998037747669113, 0.2968665358498460694, 14.43501681259435188 ) ) ;
#782 = AXIS2_PLACEMENT_3D ( 'NONE', #110, #188, #758 ) ;
#783 = DIRECTION ( 'NONE',  ( 0.000000000000000000, 0.000000000000000000, -1.000000000000000000 ) ) ;
#784 = DIRECTION ( 'NONE',  ( 1.000000000000000000, -0.000000000000000000, 0.000000000000000000 ) ) ;
#785 = DIRECTION ( 'NONE',  ( 1.000000000000000000, -0.000000000000000000, -0.000000000000000000 ) ) ;
#786 = ORIENTED_EDGE ( 'NONE', *, *, #428, .F. ) ;
#787 = FACE_OUTER_BOUND ( 'NONE', #671, .T. ) ;
#788 = CARTESIAN_POINT ( 'NONE',  ( 0.005582275261156216702, 120.8779660774031299, 14.97440550889541022 ) ) ;
#789 = CARTESIAN_POINT ( 'NONE',  ( 0.000000000000000000, 0.000000000000000000, 9.000000000000000000 ) ) ;
#790 = DIRECTION ( 'NONE',  ( -0.000000000000000000, 1.000000000000000000, -0.000000000000000000 ) ) ;
#791 = VERTEX_POINT ( 'NONE', #218 ) ;
#792 = LINE ( 'NONE', #69, #693 ) ;
#793 = CARTESIAN_POINT ( 'NONE',  ( 11.99999999999999822, 7.999999999999998224, 9.000000000000000000 ) ) ;
#794 = CARTESIAN_POINT ( 'NONE',  ( 0.5955882386023478858, 120.0795500352426757, -14.25515451325073535 ) ) ;
#795 = DIRECTION ( 'NONE',  ( 0.000000000000000000, -1.000000000000000000, 0.000000000000000000 ) ) ;
#796 = ORIENTED_EDGE ( 'NONE', *, *, #104, .T. ) ;
#797 = CARTESIAN_POINT ( 'NONE',  ( 0.2421483046507003911, 120.3357391972831039, 14.68517927306742621 ) ) ;
#798 = PRODUCT_RELATED_PRODUCT_CATEGORY ( 'part', '', ( #423 ) ) ;
#799 = DIRECTION ( 'NONE',  ( -1.000000000000000000, 0.000000000000000000, 0.000000000000000000 ) ) ;
#800 = LINE ( 'NONE', #582, #266 ) ;
#801 = CIRCLE ( 'NONE', #834, 100.0000000000000000 ) ;
#802 = PRESENTATION_STYLE_ASSIGNMENT (( #735 ) ) ;
#803 = EDGE_CURVE ( 'NONE', #272, #330, #145, .T. ) ;
#804 = VERTEX_POINT ( 'NONE', #964 ) ;
#805 = DIRECTION ( 'NONE',  ( 0.000000000000000000, 1.000000000000000000, 0.000000000000000000 ) ) ;
#806 = FACE_OUTER_BOUND ( 'NONE', #529, .T. ) ;
#807 = DIRECTION ( 'NONE',  ( 1.000000000000000000, 8.673617379884031528E-16, 0.000000000000000000 ) ) ;
#808 = CARTESIAN_POINT ( 'NONE',  ( 0.2415585695194357452, 120.3365016712651823, -14.68592994715727862 ) ) ;
#809 = ORIENTED_EDGE ( 'NONE', *, *, #152, .T. ) ;
#810 = DIRECTION ( 'NONE',  ( 0.5547001962252292584, -0.8320502943378437211, 0.000000000000000000 ) ) ;
#811 = DIRECTION ( 'NONE',  ( 0.000000000000000000, 0.000000000000000000, 1.000000000000000000 ) ) ;
#812 = CARTESIAN_POINT ( 'NONE',  ( 0.4452998037747686322, 0.2968665358498469020, -14.43501681259435010 ) ) ;
#813 = CARTESIAN_POINT ( 'NONE',  ( 0.3247182963413253742, 120.2544624191706362, -14.58155964238463120 ) ) ;
#814 = AXIS2_PLACEMENT_3D ( 'NONE', #97, #499, #730 ) ;
#815 = DIRECTION ( 'NONE',  ( 0.000000000000000000, -0.000000000000000000, -1.000000000000000000 ) ) ;
#816 = DIRECTION ( 'NONE',  ( 0.000000000000000000, -1.000000000000000000, 0.000000000000000000 ) ) ;
#817 = CIRCLE ( 'NONE', #501, 15.00000000000000000 ) ;
#818 = EDGE_CURVE ( 'NONE', #45, #636, #23, .T. ) ;
#819 = ORIENTED_EDGE ( 'NONE', *, *, #900, .F. ) ;
#820 = EDGE_CURVE ( 'NONE', #424, #1009, #403, .T. ) ;
#821 = CARTESIAN_POINT ( 'NONE',  ( 150.2775637731994323, -20.00000000000001776, 9.000000000000000000 ) ) ;
#822 = ORIENTED_EDGE ( 'NONE', *, *, #450, .T. ) ;
#823 = VERTEX_POINT ( 'NONE', #543 ) ;
#824 = CARTESIAN_POINT ( 'NONE',  ( -19.99999999999997513, -15.00000000000000000, 0.000000000000000000 ) ) ;
#825 = ORIENTED_EDGE ( 'NONE', *, *, #927, .F. ) ;
#826 = EDGE_LOOP ( 'NONE', ( #989, #744, #442, #1001, #924, #580 ) ) ;
#827 = EDGE_CURVE ( 'NONE', #923, #508, #467, .T. ) ;
#828 = CARTESIAN_POINT ( 'NONE',  ( -20.00000000000000000, -7.500000000000000000, 0.000000000000000000 ) ) ;
#829 = COLOUR_RGB ( '',0.7921568627450980005, 0.8196078431372548767, 0.9333333333333333481 ) ;
#830 = EDGE_CURVE ( 'NONE', #45, #437, #250, .T. ) ;
#831 = VECTOR ( 'NONE', #1011, 1000.000000000000000 ) ;
#832 = AXIS2_PLACEMENT_3D ( 'NONE', #1024, #867, #954 ) ;
#833 = VERTEX_POINT ( 'NONE', #165 ) ;
#834 = AXIS2_PLACEMENT_3D ( 'NONE', #742, #19, #341 ) ;
#835 = ORIENTED_EDGE ( 'NONE', *, *, #204, .F. ) ;
#836 = CARTESIAN_POINT ( 'NONE',  ( -20.00000000000000000, 127.5000000000000000, -4.000000000000001776 ) ) ;
#837 = CARTESIAN_POINT ( 'NONE',  ( 20.00000000000000000, 99.99999999999998579, -15.00000000000000178 ) ) ;
#838 = ORIENTED_EDGE ( 'NONE', *, *, #351, .T. ) ;
#839 = ORIENTED_EDGE ( 'NONE', *, *, #775, .T. ) ;
#840 =( NAMED_UNIT ( * ) SI_UNIT ( $, .STERADIAN. ) SOLID_ANGLE_UNIT ( ) );
#841 = CARTESIAN_POINT ( 'NONE',  ( -20.00000000000000000, -7.500000000000000000, -4.000000000000000888 ) ) ;
#842 = ORIENTED_EDGE ( 'NONE', *, *, #1045, .T. ) ;
#843 = EDGE_LOOP ( 'NONE', ( #352, #1022, #882, #316 ) ) ;
#844 = DIRECTION ( 'NONE',  ( 1.000000000000000000, -0.000000000000000000, 0.000000000000000000 ) ) ;
#845 = ORIENTED_EDGE ( 'NONE', *, *, #1038, .F. ) ;
#846 = CIRCLE ( 'NONE', #292, 4.000000000000001776 ) ;
#847 = ORIENTED_EDGE ( 'NONE', *, *, #291, .T. ) ;
#848 = EDGE_CURVE ( 'NONE', #203, #187, #84, .T. ) ;
#849 = VECTOR ( 'NONE', #159, 1000.000000000000000 ) ;
#850 = ADVANCED_FACE ( 'NONE', ( #2 ), #631, .F. ) ;
#851 = CARTESIAN_POINT ( 'NONE',  ( 3.343180730641032827, 2.228787153760689588, 10.93431590614759052 ) ) ;
#852 = DIRECTION ( 'NONE',  ( 0.000000000000000000, 0.000000000000000000, 1.000000000000000000 ) ) ;
#853 = EDGE_CURVE ( 'NONE', #419, #198, #163, .T. ) ;
#854 = EDGE_LOOP ( 'NONE', ( #1015, #355, #181, #895 ) ) ;
#855 = CARTESIAN_POINT ( 'NONE',  ( 0.000000000000000000, 99.99999999999998579, -9.000000000000000000 ) ) ;
#856 = DIRECTION ( 'NONE',  ( 0.000000000000000000, 0.000000000000000000, 1.000000000000000000 ) ) ;
#857 = FACE_OUTER_BOUND ( 'NONE', #755, .T. ) ;
#858 = EDGE_LOOP ( 'NONE', ( #678, #1035, #737, #689 ) ) ;
#859 = CARTESIAN_POINT ( 'NONE',  ( 0.005582275260764050367, 120.8779660774031726, -14.97440550889540845 ) ) ;
#860 = CARTESIAN_POINT ( 'NONE',  ( 0.000000000000000000, -0.1458399960210562951, 15.00000000000000000 ) ) ;
#861 = EDGE_CURVE ( 'NONE', #804, #191, #26, .T. ) ;
#862 = PLANE ( 'NONE',  #864 ) ;
#863 = ORIENTED_EDGE ( 'NONE', *, *, #447, .T. ) ;
#864 = AXIS2_PLACEMENT_3D ( 'NONE', #939, #156, #73 ) ;
#865 = VECTOR ( 'NONE', #748, 1000.000000000000000 ) ;
#866 = CARTESIAN_POINT ( 'NONE',  ( 0.000000000000000000, 121.0000000000000000, -14.96662954709576709 ) ) ;
#867 = DIRECTION ( 'NONE',  ( 1.000000000000000000, 0.000000000000000000, 0.000000000000000000 ) ) ;
#868 = CARTESIAN_POINT ( 'NONE',  ( -0.000000000000000000, 120.0000000000000000, -9.000000000000000000 ) ) ;
#869 = CARTESIAN_POINT ( 'NONE',  ( 28.00000000000000000, 99.99999999999998579, -9.000000000000000000 ) ) ;
#870 = VERTEX_POINT ( 'NONE', #892 ) ;
#871 = DIRECTION ( 'NONE',  ( 0.000000000000000000, 0.000000000000000000, 1.000000000000000000 ) ) ;
#872 = DIRECTION ( 'NONE',  ( 1.000000000000000000, -0.000000000000000000, -0.000000000000000000 ) ) ;
#873 = CARTESIAN_POINT ( 'NONE',  ( 0.004787671560018821534, -0.4374472692883568659, 14.99361997272813696 ) ) ;
#874 = DIRECTION ( 'NONE',  ( -0.000000000000000000, -0.000000000000000000, -1.000000000000000000 ) ) ;
#875 = ADVANCED_FACE ( 'NONE', ( #170 ), #738, .F. ) ;
#876 = VERTEX_POINT ( 'NONE', #14 ) ;
#877 = CARTESIAN_POINT ( 'NONE',  ( 180.0000000000000000, 120.0000000000000000, -9.000000000000000000 ) ) ;
#878 = DIRECTION ( 'NONE',  ( -0.000000000000000000, -0.000000000000000000, 1.000000000000000000 ) ) ;
#879 = CARTESIAN_POINT ( 'NONE',  ( 0.004787671560018821534, -0.4374472692883568659, 14.99361997272813696 ) ) ;
#880 = FILL_AREA_STYLE_COLOUR ( '', #829 ) ;
#881 = VECTOR ( 'NONE', #222, 1000.000000000000000 ) ;
#882 = ORIENTED_EDGE ( 'NONE', *, *, #523, .F. ) ;
#883 = CARTESIAN_POINT ( 'NONE',  ( 11.99999999999999822, 0.000000000000000000, -24.00000000000000000 ) ) ;
#884 = VECTOR ( 'NONE', #617, 1000.000000000000000 ) ;
#885 = AXIS2_PLACEMENT_3D ( 'NONE', #466, #386, #856 ) ;
#886 = DIRECTION ( 'NONE',  ( -0.000000000000000000, -1.000000000000000000, -0.000000000000000000 ) ) ;
#887 = CYLINDRICAL_SURFACE ( 'NONE', #126, 15.00000000000000000 ) ;
#888 = AXIS2_PLACEMENT_3D ( 'NONE', #311, #872, #305 ) ;
#889 = CARTESIAN_POINT ( 'NONE',  ( -11.09400392450458561, 16.64100588675687220, 9.000000000000000000 ) ) ;
#890 = ADVANCED_FACE ( 'NONE', ( #592 ), #585, .F. ) ;
#891 = ORIENTED_EDGE ( 'NONE', *, *, #483, .F. ) ;
#892 = CARTESIAN_POINT ( 'NONE',  ( 32.43760156980184206, 45.66207621629449420, -9.000000000000000000 ) ) ;
#893 = CYLINDRICAL_SURFACE ( 'NONE', #56, 4.000000000000000888 ) ;
#894 = DIRECTION ( 'NONE',  ( 1.000000000000000000, 0.000000000000000000, 0.000000000000000000 ) ) ;
#895 = ORIENTED_EDGE ( 'NONE', *, *, #223, .T. ) ;
#896 = DIRECTION ( 'NONE',  ( -1.000000000000000000, -0.000000000000000000, -0.000000000000000000 ) ) ;
#897 = CARTESIAN_POINT ( 'NONE',  ( 0.000000000000000000, 120.0000000000000142, -15.00000000000000000 ) ) ;
#898 = ADVANCED_FACE ( 'NONE', ( #975 ), #89, .F. ) ;
#899 = FILL_AREA_STYLE ('',( #880 ) ) ;
#900 = EDGE_CURVE ( 'NONE', #256, #1028, #987, .T. ) ;
#901 = ORIENTED_EDGE ( 'NONE', *, *, #384, .F. ) ;
#902 = AXIS2_PLACEMENT_3D ( 'NONE', #883, #805, #871 ) ;
#903 = DIRECTION ( 'NONE',  ( 0.000000000000000000, 0.000000000000000000, 1.000000000000000000 ) ) ;
#904 = AXIS2_PLACEMENT_3D ( 'NONE', #25, #971, #184 ) ;
#905 = PRODUCT_DEFINITION_FORMATION_WITH_SPECIFIED_SOURCE ( 'ANY', '', #423, .NOT_KNOWN. ) ;
#906 = ORIENTED_EDGE ( 'NONE', *, *, #820, .T. ) ;
#907 = ORIENTED_EDGE ( 'NONE', *, *, #197, .F. ) ;
#908 = CARTESIAN_POINT ( 'NONE',  ( 0.005569742831635931049, 120.5454400381889570, -14.99255924642235627 ) ) ;
#909 = ORIENTED_EDGE ( 'NONE', *, *, #104, .F. ) ;
#910 = ORIENTED_EDGE ( 'NONE', *, *, #1003, .T. ) ;
#911 = EDGE_CURVE ( 'NONE', #216, #283, #208, .T. ) ;
#912 = CARTESIAN_POINT ( 'NONE',  ( -19.99999999999997868, 0.000000000000000000, 0.000000000000000000 ) ) ;
#913 = EDGE_CURVE ( 'NONE', #661, #636, #393, .T. ) ;
#914 = ORIENTED_EDGE ( 'NONE', *, *, #900, .T. ) ;
#915 = ORIENTED_EDGE ( 'NONE', *, *, #349, .F. ) ;
#916 = APPLICATION_PROTOCOL_DEFINITION ( 'draft international standard', 'automotive_design', 1998, #244 ) ;
#917 = DIRECTION ( 'NONE',  ( 0.000000000000000000, 0.000000000000000000, -1.000000000000000000 ) ) ;
#918 = VECTOR ( 'NONE', #224, 1000.000000000000000 ) ;
#919 = VERTEX_POINT ( 'NONE', #654 ) ;
#920 = ORIENTED_EDGE ( 'NONE', *, *, #746, .F. ) ;
#921 = LINE ( 'NONE', #608, #113 ) ;
#922 = LINE ( 'NONE', #759, #767 ) ;
#923 = VERTEX_POINT ( 'NONE', #111 ) ;
#924 = ORIENTED_EDGE ( 'NONE', *, *, #432, .T. ) ;
#925 = LINE ( 'NONE', #443, #936 ) ;
#926 = FACE_OUTER_BOUND ( 'NONE', #169, .T. ) ;
#927 = EDGE_CURVE ( 'NONE', #935, #16, #817, .T. ) ;
#928 = ORIENTED_EDGE ( 'NONE', *, *, #647, .F. ) ;
#929 =( BOUNDED_CURVE ( )  B_SPLINE_CURVE ( 3, ( #364, #1004, #851, #289 ),
 .UNSPECIFIED., .F., .F. ) 
 B_SPLINE_CURVE_WITH_KNOTS ( ( 4, 4 ),
 ( 1.570796326794896780, 2.450128728901836084 ),
 .UNSPECIFIED. ) 
 CURVE ( )  GEOMETRIC_REPRESENTATION_ITEM ( )  RATIONAL_B_SPLINE_CURVE ( ( 1.000000000000000000, 0.9365958606383648632, 0.9365958606383648632, 1.000000000000000000 ) ) 
 REPRESENTATION_ITEM ( '' )  );
#930 = ORIENTED_EDGE ( 'NONE', *, *, #204, .T. ) ;
#931 = EDGE_CURVE ( 'NONE', #270, #216, #9, .T. ) ;
#932 = EDGE_CURVE ( 'NONE', #534, #381, #189, .T. ) ;
#933 = CARTESIAN_POINT ( 'NONE',  ( 0.2453439984417069286, 0.1369720721380429940, -14.68092552061207989 ) ) ;
#934 = FACE_OUTER_BOUND ( 'NONE', #940, .T. ) ;
#935 = VERTEX_POINT ( 'NONE', #497 ) ;
#936 = VECTOR ( 'NONE', #362, 1000.000000000000114 ) ;
#937 = PLANE ( 'NONE',  #602 ) ;
#938 = CARTESIAN_POINT ( 'NONE',  ( 0.000000000000000000, -7.499999999999999112, 4.000000000000000888 ) ) ;
#939 = CARTESIAN_POINT ( 'NONE',  ( 113.9444872453600652, 99.99999999999998579, -15.00000000000000178 ) ) ;
#940 = EDGE_LOOP ( 'NONE', ( #906, #98, #394, #591, #993, #430 ) ) ;
#941 = ADVANCED_FACE ( 'NONE', ( #985 ), #576, .F. ) ;
#942 = CYLINDRICAL_SURFACE ( 'NONE', #682, 4.000000000000001776 ) ;
#943 = FACE_OUTER_BOUND ( 'NONE', #559, .T. ) ;
#944 = LINE ( 'NONE', #634, #24 ) ;
#945 = DIRECTION ( 'NONE',  ( 0.000000000000000000, 0.000000000000000000, 1.000000000000000000 ) ) ;
#946 = DIRECTION ( 'NONE',  ( 0.000000000000000000, 0.000000000000000000, 1.000000000000000000 ) ) ;
#947 = DIRECTION ( 'NONE',  ( -0.000000000000000000, 0.000000000000000000, 1.000000000000000000 ) ) ;
#948 = CARTESIAN_POINT ( 'NONE',  ( 0.000000000000000000, 120.0000000000000000, 9.000000000000000000 ) ) ;
#949 = ORIENTED_EDGE ( 'NONE', *, *, #119, .T. ) ;
#950 = CIRCLE ( 'NONE', #1034, 15.00000000000000000 ) ;
#951 = AXIS2_PLACEMENT_3D ( 'NONE', #538, #947, #632 ) ;
#952 = AXIS2_PLACEMENT_3D ( 'NONE', #555, #64, #570 ) ;
#953 = CARTESIAN_POINT ( 'NONE',  ( 0.7936148844443131622, 120.0161334132330353, 14.02808097476581395 ) ) ;
#954 = DIRECTION ( 'NONE',  ( 0.000000000000000000, 0.000000000000000000, -1.000000000000000000 ) ) ;
#955 = DIRECTION ( 'NONE',  ( -0.000000000000000000, 0.000000000000000000, 1.000000000000000000 ) ) ;
#956 = DIRECTION ( 'NONE',  ( -1.000000000000000000, -1.619075244245020119E-16, 0.000000000000000000 ) ) ;
#957 = ORIENTED_EDGE ( 'NONE', *, *, #931, .T. ) ;
#958 = CARTESIAN_POINT ( 'NONE',  ( 87.52228214350411406, 99.99999999999998579, 9.000000000000000000 ) ) ;
#959 = CARTESIAN_POINT ( 'NONE',  ( 2.019880444238091776E-18, -0.5025695276105882625, 14.99161395293241839 ) ) ;
#960 = CARTESIAN_POINT ( 'NONE',  ( 0.8950793832712655718, 120.0000000000000142, -13.91513241498477882 ) ) ;
#961 = CARTESIAN_POINT ( 'NONE',  ( 87.52228214350411406, 99.99999999999998579, -9.000000000000000000 ) ) ;
#962 = ORIENTED_EDGE ( 'NONE', *, *, #486, .F. ) ;
#963 = CARTESIAN_POINT ( 'NONE',  ( 0.5975825870272678531, 120.0787787984334187, 14.25284074489844954 ) ) ;
#964 = CARTESIAN_POINT ( 'NONE',  ( 20.00000000000000000, 92.00000000000000000, 9.000000000000000000 ) ) ;
#965 = CARTESIAN_POINT ( 'NONE',  ( 0.000000000000000000, 0.000000000000000000, -15.00000000000000000 ) ) ;
#966 = ADVANCED_FACE ( 'NONE', ( #336 ), #268, .F. ) ;
#967 = STYLED_ITEM ( 'NONE', ( #802 ), #280 ) ;
#968 = CARTESIAN_POINT ( 'NONE',  ( 0.01676003902541845642, 120.8176838483767597, 14.97769652263337115 ) ) ;
#969 = CIRCLE ( 'NONE', #207, 7.999999999999992895 ) ;
#970 = AXIS2_PLACEMENT_3D ( 'NONE', #716, #475, #326 ) ;
#971 = DIRECTION ( 'NONE',  ( 0.000000000000000000, 0.000000000000000000, -1.000000000000000000 ) ) ;
#972 = DIRECTION ( 'NONE',  ( -1.000000000000000000, 0.000000000000000000, 0.000000000000000000 ) ) ;
#973 = DIRECTION ( 'NONE',  ( -0.8320502943378437211, -0.5547001962252291474, 0.000000000000000000 ) ) ;
#974 = EDGE_LOOP ( 'NONE', ( #660, #751, #129, #607 ) ) ;
#975 = FACE_OUTER_BOUND ( 'NONE', #502, .T. ) ;
#976 = CARTESIAN_POINT ( 'NONE',  ( 0.000000000000000000, -7.500000000000000000, 0.000000000000000000 ) ) ;
#977 = CARTESIAN_POINT ( 'NONE',  ( 0.000000000000000000, 0.000000000000000000, -15.00000000000000000 ) ) ;
#978 = ORIENTED_EDGE ( 'NONE', *, *, #711, .T. ) ;
#979 = SHAPE_DEFINITION_REPRESENTATION ( #521, #101 ) ;
#980 = CARTESIAN_POINT ( 'NONE',  ( 150.2775637731994323, -20.00000000000001776, 9.000000000000000000 ) ) ;
#981 = DIRECTION ( 'NONE',  ( -0.000000000000000000, -0.000000000000000000, -1.000000000000000000 ) ) ;
#982 = ORIENTED_EDGE ( 'NONE', *, *, #304, .F. ) ;
#983 = ORIENTED_EDGE ( 'NONE', *, *, #67, .F. ) ;
#984 = VECTOR ( 'NONE', #945, 1000.000000000000000 ) ;
#985 = FACE_OUTER_BOUND ( 'NONE', #21, .T. ) ;
#986 = VECTOR ( 'NONE', #704, 1000.000000000000000 ) ;
#987 = CIRCLE ( 'NONE', #651, 4.000000000000001776 ) ;
#988 = EDGE_CURVE ( 'NONE', #381, #340, #552, .T. ) ;
#989 = ORIENTED_EDGE ( 'NONE', *, *, #687, .T. ) ;
#990 = VERTEX_POINT ( 'NONE', #589 ) ;
#991 = DIRECTION ( 'NONE',  ( 0.8320502943378436100, 0.5547001962252291474, 0.000000000000000000 ) ) ;
#992 = ORIENTED_EDGE ( 'NONE', *, *, #37, .T. ) ;
#993 = ORIENTED_EDGE ( 'NONE', *, *, #107, .T. ) ;
#994 = LINE ( 'NONE', #354, #379 ) ;
#995 = ORIENTED_EDGE ( 'NONE', *, *, #663, .F. ) ;
#996 = ORIENTED_EDGE ( 'NONE', *, *, #558, .F. ) ;
#997 = CARTESIAN_POINT ( 'NONE',  ( 180.0000000000000000, 120.0000000000000000, 9.000000000000000000 ) ) ;
#998 = DIRECTION ( 'NONE',  ( -1.000000000000000000, 0.000000000000000000, -0.000000000000000000 ) ) ;
#999 = VECTOR ( 'NONE', #605, 1000.000000000000000 ) ;
#1000 = ORIENTED_EDGE ( 'NONE', *, *, #353, .F. ) ;
#1001 = ORIENTED_EDGE ( 'NONE', *, *, #183, .F. ) ;
#1002 = EDGE_CURVE ( 'NONE', #506, #270, #801, .T. ) ;
#1003 = EDGE_CURVE ( 'NONE', #833, #340, #507, .T. ) ;
#1004 = CARTESIAN_POINT ( 'NONE',  ( 7.455484546984963323, 4.970323031323307994, 8.999999999999994671 ) ) ;
#1005 = ADVANCED_FACE ( 'NONE', ( #510, #348 ), #670, .F. ) ;
#1006 = ORIENTED_EDGE ( 'NONE', *, *, #338, .T. ) ;
#1007 = ORIENTED_EDGE ( 'NONE', *, *, #86, .F. ) ;
#1008 = CARTESIAN_POINT ( 'NONE',  ( 20.00000000000000000, 92.00000000000000000, -9.000000000000000000 ) ) ;
#1009 = VERTEX_POINT ( 'NONE', #683 ) ;
#1010 = DIRECTION ( 'NONE',  ( 1.000000000000000000, -0.000000000000000000, -0.000000000000000000 ) ) ;
#1011 = DIRECTION ( 'NONE',  ( 1.000000000000000000, -0.000000000000000000, -0.000000000000000000 ) ) ;
#1012 = CARTESIAN_POINT ( 'NONE',  ( -19.99999999999997868, -3.238150488490036886E-15, 15.00000000000000000 ) ) ;
#1013 = AXIS2_PLACEMENT_3D ( 'NONE', #461, #700, #712 ) ;
#1014 = EDGE_CURVE ( 'NONE', #791, #446, #994, .T. ) ;
#1015 = ORIENTED_EDGE ( 'NONE', *, *, #349, .T. ) ;
#1016 = AXIS2_PLACEMENT_3D ( 'NONE', #225, #378, #239 ) ;
#1017 = ADVANCED_FACE ( 'NONE', ( #279 ), #357, .T. ) ;
#1018 = APPLICATION_CONTEXT ( 'automotive_design' ) ;
#1019 = CARTESIAN_POINT ( 'NONE',  ( 0.3406156118748505102, 0.2270770745832326187, -14.56147751085050324 ) ) ;
#1020 = CARTESIAN_POINT ( 'NONE',  ( -20.00000000000000000, 127.5000000000000000, -4.000000000000001776 ) ) ;
#1021 = DIRECTION ( 'NONE',  ( 0.000000000000000000, -0.000000000000000000, 1.000000000000000000 ) ) ;
#1022 = ORIENTED_EDGE ( 'NONE', *, *, #262, .T. ) ;
#1023 = DIRECTION ( 'NONE',  ( -0.000000000000000000, 1.000000000000000000, -0.000000000000000000 ) ) ;
#1024 = CARTESIAN_POINT ( 'NONE',  ( -20.00000000000000000, -7.500000000000000000, 0.000000000000000000 ) ) ;
#1025 = FACE_BOUND ( 'NONE', #667, .T. ) ;
#1026 = B_SPLINE_CURVE_WITH_KNOTS ( 'NONE', 3,
 ( #286, #47, #768, #522 ),
 .UNSPECIFIED., .F., .F.,
 ( 4, 4 ),
 ( 0.000000000000000000, 0.0008181596542894448328 ),
 .UNSPECIFIED. ) ;
#1027 = CARTESIAN_POINT ( 'NONE',  ( 20.00000000000000000, 52.31847857099724308, -9.000000000000000000 ) ) ;
#1028 = VERTEX_POINT ( 'NONE', #836 ) ;
#1029 = CARTESIAN_POINT ( 'NONE',  ( 0.000000000000000000, 0.000000000000000000, -9.000000000000000000 ) ) ;
#1030 = DIRECTION ( 'NONE',  ( -1.000000000000000000, 0.000000000000000000, 0.000000000000000000 ) ) ;
#1031 = CARTESIAN_POINT ( 'NONE',  ( 0.000000000000000000, 0.000000000000000000, 0.000000000000000000 ) ) ;
#1032 = CARTESIAN_POINT ( 'NONE',  ( -20.00000000000000000, 120.0000000000000142, 0.000000000000000000 ) ) ;
#1033 = VECTOR ( 'NONE', #1023, 1000.000000000000000 ) ;
#1034 = AXIS2_PLACEMENT_3D ( 'NONE', #66, #1041, #401 ) ;
#1035 = ORIENTED_EDGE ( 'NONE', *, *, #931, .F. ) ;
#1036 = AXIS2_PLACEMENT_3D ( 'NONE', #703, #783, #59 ) ;
#1037 = DIRECTION ( 'NONE',  ( 1.000000000000000000, 0.000000000000000000, 0.000000000000000000 ) ) ;
#1038 = EDGE_CURVE ( 'NONE', #1009, #935, #921, .T. ) ;
#1039 = DIRECTION ( 'NONE',  ( 1.000000000000000000, -0.000000000000000000, -0.000000000000000000 ) ) ;
#1040 = CARTESIAN_POINT ( 'NONE',  ( 0.02225926591275392830, -0.2595408779320313442, 14.97035030352221696 ) ) ;
#1041 = DIRECTION ( 'NONE',  ( 1.000000000000000000, -0.000000000000000000, -0.000000000000000000 ) ) ;
#1042 = ADVANCED_FACE ( 'NONE', ( #116 ), #676, .F. ) ;
#1043 = ORIENTED_EDGE ( 'NONE', *, *, #515, .F. ) ;
#1044 = DIRECTION ( 'NONE',  ( -1.000000000000000000, 0.000000000000000000, -0.000000000000000000 ) ) ;
#1045 = EDGE_CURVE ( 'NONE', #870, #272, #925, .T. ) ;
#1046 = CARTESIAN_POINT ( 'NONE',  ( -3.014829825872242456E-13, 120.9387389097231278, 14.97072272586286523 ) ) ;
#1047 = CARTESIAN_POINT ( 'NONE',  ( 0.004787671560018823269, -0.4374472692883567548, -14.99361997272813696 ) ) ;
ENDSEC;
END-ISO-10303-21;
